<svg width="24" height="21" viewBox="0 0 24 21" fill="none" xmlns="http://www.w3.org/2000/svg">
<mask id="mask0_1546_12646" style="mask-type:luminance" maskUnits="userSpaceOnUse" x="0" y="0" width="25" height="21">
<path d="M24.002 0H0.00195312V20.5714H24.002V0Z" fill="white"/>
</mask>
<g mask="url(#mask0_1546_12646)">
<path d="M23.5975 16.4057L14.3918 1.33714C13.3118 -0.445714 10.6889 -0.445714 9.60036 1.33714L0.411786 16.4057C-0.933928 18.5914 1.22607 21.2314 3.68607 20.4257L10.2261 18.2829C11.3661 17.9057 12.6175 17.9057 13.7575 18.2829L20.2975 20.4257C22.7575 21.24 24.9175 18.6 23.5804 16.4057H23.5975ZM14.0746 12.8229L12.4375 12.2914C12.1546 12.1971 11.8461 12.1971 11.5546 12.2914L9.9175 12.8229C9.30036 13.0286 8.76893 12.3686 9.10322 11.82L11.4004 8.05714C11.6746 7.61143 12.3261 7.61143 12.5918 8.05714L14.8975 11.82C15.2232 12.3686 14.6918 13.0286 14.0746 12.8229Z" fill="#1F2937"/>
</g>
</svg>
