<svg width="119" height="28" viewBox="0 0 119 28" fill="none" xmlns="http://www.w3.org/2000/svg">
<mask id="mask0_1186_2467" style="mask-type:luminance" maskUnits="userSpaceOnUse" x="0" y="0" width="28" height="24">
<path d="M28 0H0V24H28V0Z" fill="white"/>
</mask>
<g mask="url(#mask0_1186_2467)">
<path d="M27.5307 19.14L16.7907 1.56C15.5307 -0.52 12.4707 -0.52 11.2007 1.56L0.480743 19.14C-1.08926 21.69 1.43074 24.77 4.30074 23.83L11.9307 21.33C13.2607 20.89 14.7207 20.89 16.0507 21.33L23.6807 23.83C26.5507 24.78 29.0707 21.7 27.5107 19.14H27.5307ZM16.4207 14.96L14.5107 14.34C14.1807 14.23 13.8207 14.23 13.4807 14.34L11.5707 14.96C10.8507 15.2 10.2307 14.43 10.6207 13.79L13.3007 9.4C13.6207 8.88 14.3807 8.88 14.6907 9.4L17.3807 13.79C17.7607 14.43 17.1407 15.2 16.4207 14.96Z" fill="#1F2937"/>
</g>
<path d="M36.6598 9.79999C38.2898 9.79999 39.6198 10.19 40.6598 10.97V14.64C39.6798 13.71 38.4498 13.25 36.9598 13.25C35.8798 13.25 34.9998 13.56 34.3298 14.18C33.6498 14.81 33.3098 15.62 33.3098 16.61C33.3098 17.6 33.6498 18.38 34.3398 19.01C35.0298 19.64 35.8998 19.95 36.9598 19.95C38.4398 19.95 39.6698 19.49 40.6598 18.58V22.22C39.6298 23.01 38.2998 23.4 36.6598 23.4C34.6098 23.4 32.8998 22.76 31.5298 21.48C30.1898 20.19 29.5098 18.57 29.5098 16.61C29.5098 14.65 30.1798 13.03 31.5298 11.74C32.8798 10.44 34.5898 9.79999 36.6598 9.79999Z" fill="#1F2937"/>
<path d="M47.4198 23.06H43.7198V13.65H42.0098V10.21H43.7198V5.28998H47.4198V10.21H50.2498V13.65H47.4198V23.06Z" fill="#1F2937"/>
<path d="M51.7698 17.88V10.21H55.6198V17.56C55.6198 18.35 55.8298 18.94 56.2498 19.33C56.6698 19.72 57.2398 19.92 57.9698 19.92C58.6998 19.92 59.2698 19.72 59.6898 19.33C60.1098 18.94 60.3098 18.34 60.3098 17.56V10.21H64.1598V17.88C64.1598 19.68 63.5698 21.05 62.3798 21.99C61.1998 22.94 59.7298 23.42 57.9698 23.42C56.2098 23.42 54.7298 22.94 53.5198 21.99C52.3498 21.04 51.7598 19.67 51.7598 17.88H51.7698Z" fill="#1F2937"/>
<path d="M72.39 9.96997C73.35 9.96997 74.18 10.15 74.88 10.51C75.58 10.87 76.03 11.33 76.22 11.89V10.21H80.02V23.06H76.22V21.38C76.03 21.94 75.58 22.4 74.88 22.76C74.18 23.12 73.35 23.29 72.38 23.29C70.56 23.29 69.04 22.65 67.82 21.38C66.61 20.07 66 18.49 66 16.64C66 14.79 66.61 13.21 67.82 11.92C69.04 10.62 70.56 9.97997 72.38 9.97997L72.39 9.96997ZM73.09 19.85C74.03 19.85 74.82 19.54 75.46 18.93C76.12 18.29 76.46 17.53 76.46 16.64C76.46 15.75 76.13 14.99 75.46 14.37C74.83 13.74 74.04 13.42 73.09 13.42C72.14 13.42 71.39 13.74 70.76 14.37C70.13 14.98 69.81 15.73 69.81 16.64C69.81 17.55 70.13 18.3 70.76 18.93C71.4 19.54 72.18 19.85 73.09 19.85Z" fill="#1F2937"/>
<path d="M86.3491 23.06H82.5391V5.28998H86.3491V23.06Z" fill="#1F2937"/>
<path d="M88.5996 6.96999C88.5996 6.35999 88.8096 5.84999 89.2396 5.42999C89.6696 5.00999 90.1696 4.79999 90.7696 4.79999C91.3696 4.79999 91.8796 5.00999 92.2996 5.42999C92.7196 5.84999 92.9396 6.35999 92.9396 6.96999C92.9396 7.57999 92.7296 8.06999 92.2996 8.48999C91.8696 8.90999 91.3696 9.10999 90.7696 9.10999C90.1696 9.10999 89.6596 8.89999 89.2396 8.48999C88.8196 8.07999 88.5996 7.56999 88.5996 6.96999ZM92.6896 23.06H88.8796V10.21H92.6896V23.06Z" fill="#1F2937"/>
<path d="M99.7596 23.06H96.0596V13.65H94.3496V10.21H96.0596V5.28998H99.7596V10.21H102.59V13.65H99.7596V23.06Z" fill="#1F2937"/>
<path d="M106.031 28L108.101 23.28L102.721 10.21H106.681L110.091 18.78L113.561 10.21H117.511L109.941 28H106.031Z" fill="#1F2937"/>
</svg>
