<svg width="20" height="20" viewBox="0 0 20 20" fill="none" xmlns="http://www.w3.org/2000/svg">
<path d="M6.40039 1.3524C5.76289 0.759902 4.90789 0.399902 3.97039 0.399902C1.99789 0.399902 0.400391 1.9974 0.400391 3.9699C0.400391 4.6749 0.606641 5.33115 0.959141 5.88615L6.40039 1.3524ZM10.0004 19.5999C11.8866 19.5999 13.6304 18.9774 15.0329 17.9274L16.3529 19.2474C16.8216 19.7162 17.5829 19.7162 18.0516 19.2474C18.5204 18.7787 18.5204 18.0174 18.0516 17.5487L16.7316 16.2287C17.7816 14.8262 18.4041 13.0862 18.4041 11.1962C18.4004 6.56115 14.6391 2.7999 10.0004 2.7999C5.36164 2.7999 1.60039 6.56115 1.60039 11.1999C1.60039 13.0862 2.22289 14.8299 3.27289 16.2324L1.95289 17.5524C1.48414 18.0212 1.48414 18.7824 1.95289 19.2512C2.42164 19.7199 3.18289 19.7199 3.65164 19.2512L4.97164 17.9312C6.37414 18.9812 8.11414 19.6037 10.0004 19.6037V19.5999ZM19.0416 5.8899C19.3941 5.3349 19.6004 4.6749 19.6004 3.9699C19.6004 1.9974 18.0029 0.399902 16.0304 0.399902C15.0929 0.399902 14.2379 0.759902 13.6004 1.3524L19.0416 5.8899ZM10.9004 7.2999V10.8287L12.4379 12.3662C12.7904 12.7187 12.7904 13.2887 12.4379 13.6374C12.0854 13.9862 11.5154 13.9899 11.1666 13.6374L9.36664 11.8374C9.19789 11.6687 9.10414 11.4399 9.10414 11.1999V7.2999C9.10414 6.80115 9.50539 6.3999 10.0041 6.3999C10.5029 6.3999 10.9041 6.80115 10.9041 7.2999H10.9004Z" fill="#1F2937"/>
</svg>
