<svg width="20" height="20" viewBox="0 0 20 20" fill="none" xmlns="http://www.w3.org/2000/svg">
<path d="M9.5 3.75C9.5 2.78438 8.71562 2 7.75 2C6.84688 2 6.10313 2.68438 6.00938 3.55938C5.14375 3.77813 4.5 4.56562 4.5 5.5C4.5 5.6875 4.525 5.87187 4.575 6.04375C3.675 6.24062 3 7.04063 3 8C3 8.46875 3.15937 8.9 3.43125 9.24062C2.58437 9.64062 2 10.5031 2 11.5C2 12.5688 2.66875 13.4812 3.6125 13.8375C3.54062 14.0437 3.5 14.2688 3.5 14.5C3.5 15.6031 4.39687 16.5 5.5 16.5C5.675 16.5 5.84688 16.4781 6.00938 16.4344C6.1 17.3156 6.84688 18 7.75 18C8.71562 18 9.5 17.2156 9.5 16.25V10.5H8C7.725 10.5 7.5 10.725 7.5 11V12.0844C8.08125 12.2906 8.5 12.8469 8.5 13.5C8.5 14.3281 7.82812 15 7 15C6.17188 15 5.5 14.3281 5.5 13.5C5.5 12.8469 5.91875 12.2906 6.5 12.0844V11C6.5 10.1719 7.17188 9.5 8 9.5H9.5V7H8.41563C8.20937 7.58125 7.65312 8 7 8C6.17188 8 5.5 7.32812 5.5 6.5C5.5 5.67188 6.17188 5 7 5C7.65312 5 8.20937 5.41875 8.41563 6H9.5V3.75ZM10.5 7V13H11.5844C11.7906 12.4187 12.3469 12 13 12C13.8281 12 14.5 12.6719 14.5 13.5C14.5 14.3281 13.8281 15 13 15C12.3469 15 11.7906 14.5813 11.5844 14H10.5V16.25C10.5 17.2156 11.2844 18 12.25 18C13.1531 18 13.8969 17.3156 13.9906 16.4344C14.1531 16.4781 14.325 16.5 14.5 16.5C15.6031 16.5 16.5 15.6031 16.5 14.5C16.5 14.2688 16.4594 14.0437 16.3875 13.8375C17.3313 13.4812 18 12.5688 18 11.5C18 10.5031 17.4156 9.64062 16.5688 9.24062C16.8406 8.9 17 8.46875 17 8C17 7.04063 16.325 6.24062 15.425 6.04375C15.475 5.87187 15.5 5.6875 15.5 5.5C15.5 4.56562 14.8563 3.77813 13.9906 3.55938C13.8938 2.68438 13.1531 2 12.25 2C11.2844 2 10.5 2.78438 10.5 3.75V6H12C12.8281 6 13.5 6.67188 13.5 7.5V7.58437C14.0813 7.79063 14.5 8.34688 14.5 9C14.5 9.82812 13.8281 10.5 13 10.5C12.1719 10.5 11.5 9.82812 11.5 9C11.5 8.34688 11.9187 7.79063 12.5 7.58437V7.5C12.5 7.225 12.275 7 12 7H10.5ZM6.5 6.5C6.5 6.63261 6.55268 6.75979 6.64645 6.85355C6.74021 6.94732 6.86739 7 7 7C7.13261 7 7.25979 6.94732 7.35355 6.85355C7.44732 6.75979 7.5 6.63261 7.5 6.5C7.5 6.36739 7.44732 6.24021 7.35355 6.14645C7.25979 6.05268 7.13261 6 7 6C6.86739 6 6.74021 6.05268 6.64645 6.14645C6.55268 6.24021 6.5 6.36739 6.5 6.5ZM13 8.5C12.8674 8.5 12.7402 8.55268 12.6464 8.64645C12.5527 8.74021 12.5 8.86739 12.5 9C12.5 9.13261 12.5527 9.25979 12.6464 9.35355C12.7402 9.44732 12.8674 9.5 13 9.5C13.1326 9.5 13.2598 9.44732 13.3536 9.35355C13.4473 9.25979 13.5 9.13261 13.5 9C13.5 8.86739 13.4473 8.74021 13.3536 8.64645C13.2598 8.55268 13.1326 8.5 13 8.5ZM6.5 13.5C6.5 13.6326 6.55268 13.7598 6.64645 13.8536C6.74021 13.9473 6.86739 14 7 14C7.13261 14 7.25979 13.9473 7.35355 13.8536C7.44732 13.7598 7.5 13.6326 7.5 13.5C7.5 13.3674 7.44732 13.2402 7.35355 13.1464C7.25979 13.0527 7.13261 13 7 13C6.86739 13 6.74021 13.0527 6.64645 13.1464C6.55268 13.2402 6.5 13.3674 6.5 13.5ZM12.5 13.5C12.5 13.6326 12.5527 13.7598 12.6464 13.8536C12.7402 13.9473 12.8674 14 13 14C13.1326 14 13.2598 13.9473 13.3536 13.8536C13.4473 13.7598 13.5 13.6326 13.5 13.5C13.5 13.3674 13.4473 13.2402 13.3536 13.1464C13.2598 13.0527 13.1326 13 13 13C12.8674 13 12.7402 13.0527 12.6464 13.1464C12.5527 13.2402 12.5 13.3674 12.5 13.5Z" fill="#1F2937"/>
</svg>
