<svg width="20" height="18" viewBox="0 0 20 18" fill="none" xmlns="http://www.w3.org/2000/svg">
<path d="M1.60039 0.600098C2.26414 0.600098 2.80039 1.13635 2.80039 1.8001V14.4001C2.80039 14.7301 3.07039 15.0001 3.40039 15.0001H18.4004C19.0641 15.0001 19.6004 15.5363 19.6004 16.2001C19.6004 16.8638 19.0641 17.4001 18.4004 17.4001H3.40039C1.74289 17.4001 0.400391 16.0576 0.400391 14.4001V1.8001C0.400391 1.13635 0.936641 0.600098 1.60039 0.600098ZM6.40039 7.8001C7.06414 7.8001 7.60039 8.33635 7.60039 9.0001V11.4001C7.60039 12.0638 7.06414 12.6001 6.40039 12.6001C5.73664 12.6001 5.20039 12.0638 5.20039 11.4001V9.0001C5.20039 8.33635 5.73664 7.8001 6.40039 7.8001ZM11.2004 5.4001V11.4001C11.2004 12.0638 10.6641 12.6001 10.0004 12.6001C9.33664 12.6001 8.80039 12.0638 8.80039 11.4001V5.4001C8.80039 4.73635 9.33664 4.2001 10.0004 4.2001C10.6641 4.2001 11.2004 4.73635 11.2004 5.4001ZM13.6004 6.6001C14.2641 6.6001 14.8004 7.13635 14.8004 7.8001V11.4001C14.8004 12.0638 14.2641 12.6001 13.6004 12.6001C12.9366 12.6001 12.4004 12.0638 12.4004 11.4001V7.8001C12.4004 7.13635 12.9366 6.6001 13.6004 6.6001ZM18.4004 3.0001V11.4001C18.4004 12.0638 17.8641 12.6001 17.2004 12.6001C16.5366 12.6001 16.0004 12.0638 16.0004 11.4001V3.0001C16.0004 2.33635 16.5366 1.8001 17.2004 1.8001C17.8641 1.8001 18.4004 2.33635 18.4004 3.0001Z" fill="#6B7280"/>
</svg>
