<svg width="14" height="14" viewBox="0 0 14 14" fill="none" xmlns="http://www.w3.org/2000/svg">
<path d="M10.7066 1.70615C11.0973 1.31553 11.0973 0.681152 10.7066 0.290527C10.316 -0.100098 9.68164 -0.100098 9.29102 0.290527L5.00039 4.58428L3.20664 2.79053C2.81602 2.3999 2.18164 2.3999 1.79102 2.79053C1.40039 3.18115 1.40039 3.81553 1.79102 4.20615L4.29102 6.70615C4.68164 7.09678 5.31602 7.09678 5.70664 6.70615L10.7066 1.70615ZM13.7066 5.70615C14.0973 5.31553 14.0973 4.68115 13.7066 4.29053C13.316 3.8999 12.6816 3.8999 12.291 4.29053L5.00039 11.5843L1.70664 8.29365C1.31602 7.90303 0.681641 7.90303 0.291016 8.29365C-0.0996094 8.68428 -0.0996094 9.31865 0.291016 9.70928L4.29102 13.7093C4.68164 14.0999 5.31602 14.0999 5.70664 13.7093L13.7066 5.70928V5.70615Z" fill="#1F2937"/>
</svg>
