<svg width="25" height="24" viewBox="0 0 25 24" fill="none" xmlns="http://www.w3.org/2000/svg">
<g clip-path="url(#clip0_1046_3209)">
<path d="M18.932 9.5999C19.1045 9.5999 19.2808 9.6074 19.4495 9.61865C18.8758 5.53865 15.3695 2.3999 11.132 2.3999C10.7945 2.3999 10.532 2.6849 10.532 3.0224V11.3999H14.402C15.5833 10.2824 17.177 9.5999 18.932 9.5999ZM12.332 16.1999C12.332 15.1199 12.5908 14.0999 13.052 13.1999H8.73203V4.90115C8.73203 4.2074 8.14328 3.6524 7.46453 3.7949C3.38828 4.65365 0.332031 8.26865 0.332031 12.5999C0.332031 17.5724 4.36328 21.5999 9.33203 21.5999C10.9745 21.5999 12.512 21.1612 13.8358 20.3924C12.8945 19.2524 12.332 17.7937 12.332 16.1999ZM24.332 16.1999C24.332 14.7677 23.7631 13.3942 22.7504 12.3815C21.7377 11.3688 20.3642 10.7999 18.932 10.7999C17.4999 10.7999 16.1264 11.3688 15.1137 12.3815C14.101 13.3942 13.532 14.7677 13.532 16.1999C13.532 17.6321 14.101 19.0056 15.1137 20.0183C16.1264 21.031 17.4999 21.5999 18.932 21.5999C20.3642 21.5999 21.7377 21.031 22.7504 20.0183C23.7631 19.0056 24.332 17.6321 24.332 16.1999ZM18.062 14.9774C18.047 15.0037 18.0283 15.0374 18.032 15.1124C18.032 15.1124 18.032 15.1124 18.032 15.1162C18.032 15.1312 18.032 15.1874 18.212 15.2849C18.422 15.3974 18.7183 15.4799 19.1083 15.5924H19.1158C19.4645 15.6899 19.907 15.8174 20.2595 16.0237C20.642 16.2487 21.0095 16.6274 21.0283 17.2349C21.047 17.9174 20.6645 18.3749 20.2145 18.6187C19.997 18.7349 19.7608 18.8099 19.5283 18.8512V19.2562C19.5283 19.5862 19.2583 19.8562 18.9283 19.8562C18.5983 19.8562 18.3283 19.5862 18.3283 19.2562V18.8287C18.0058 18.7649 17.702 18.6674 17.4395 18.5812C17.3758 18.5587 17.312 18.5399 17.252 18.5212C16.937 18.4237 16.757 18.0862 16.8583 17.7712C16.9595 17.4562 17.2933 17.2762 17.6083 17.3774C17.6833 17.3999 17.7545 17.4224 17.8258 17.4449C18.2533 17.5799 18.5908 17.6887 18.947 17.6999C19.1983 17.7074 19.4645 17.6587 19.6408 17.5649C19.7233 17.5199 19.7683 17.4749 19.7908 17.4412C19.8095 17.4112 19.832 17.3624 19.8283 17.2724C19.8283 17.2199 19.8208 17.1599 19.652 17.0624C19.4533 16.9462 19.1683 16.8599 18.782 16.7512L18.7145 16.7324C18.3808 16.6387 17.972 16.5224 17.642 16.3462C17.2708 16.1474 16.8695 15.7949 16.832 15.1949C16.787 14.4899 17.207 14.0362 17.6495 13.7999C17.8633 13.6837 18.0995 13.6087 18.3245 13.5637V13.2074C18.3245 12.8774 18.5945 12.6074 18.9245 12.6074C19.2545 12.6074 19.5245 12.8774 19.5245 13.2074V13.5599C19.7608 13.5937 19.9858 13.6462 20.1958 13.6987C20.5183 13.7774 20.7133 14.1037 20.6345 14.4262C20.5558 14.7487 20.2295 14.9437 19.907 14.8649C19.5583 14.7787 19.2245 14.7149 18.917 14.7112C18.6845 14.7074 18.407 14.7599 18.2158 14.8612C18.1258 14.9099 18.0808 14.9549 18.0583 14.9887L18.062 14.9774Z" fill="#1F2937"/>
</g>
<defs>
<clipPath id="clip0_1046_3209">
<rect width="24" height="24" fill="white" transform="translate(0.332031)"/>
</clipPath>
</defs>
</svg>
