<svg width="16" height="16" viewBox="0 0 16 16" fill="none" xmlns="http://www.w3.org/2000/svg">
<path d="M4.00023 2C4.00023 0.896875 4.89711 0 6.00023 0H11.0002V4C11.0002 4.55312 11.4471 5 12.0002 5H16.0002V14C16.0002 15.1031 15.1034 16 14.0002 16H6.91586C6.97211 15.8406 7.00023 15.6719 7.00023 15.5V13C7.04086 12.9844 7.07836 12.9688 7.11898 12.9531C7.33148 12.8594 7.56586 12.7094 7.76273 12.4688C7.96273 12.2219 8.07836 11.9312 8.11898 11.6219C8.13461 11.5094 8.14398 11.4437 8.15336 11.4C8.18773 11.3719 8.24086 11.3281 8.32836 11.2594C8.95023 10.7781 9.17523 9.94062 8.87523 9.2125C8.83148 9.10938 8.80961 9.04375 8.79398 9.00313C8.80961 8.95938 8.83148 8.89687 8.87523 8.79375C9.17211 8.06563 8.95023 7.22812 8.32836 6.74687C8.24086 6.67812 8.18773 6.63437 8.15336 6.60625C8.14398 6.5625 8.13461 6.49375 8.11898 6.38438C8.01273 5.60625 7.40023 4.99062 6.62211 4.8875C6.50961 4.87187 6.44398 4.8625 6.40023 4.85313C6.37211 4.81875 6.32836 4.76562 6.25961 4.67812C5.77836 4.05625 4.94086 3.83125 4.21273 4.13125C4.13148 4.16563 4.05336 4.20312 4.00648 4.225L4.00336 4.22813L4.00023 2ZM16.0002 4H12.0002V0L16.0002 4ZM3.41273 5.05L3.90648 5.25C3.96586 5.275 4.03461 5.275 4.09711 5.25L4.59086 5.04688C4.90336 4.91875 5.26273 5.01562 5.46898 5.28125L5.79711 5.70312C5.83773 5.75625 5.89711 5.7875 5.95961 5.79688L6.48773 5.86875C6.82211 5.91563 7.08461 6.17812 7.12836 6.50938L7.20023 7.0375C7.20961 7.10313 7.24398 7.1625 7.29398 7.2L7.71586 7.52812C7.98148 7.73438 8.07836 8.09375 7.95023 8.40625L7.75023 8.90625C7.72523 8.96562 7.72523 9.03438 7.75023 9.09688L7.95336 9.59062C8.08148 9.90312 7.98461 10.2625 7.71898 10.4688L7.29711 10.7969C7.24398 10.8375 7.21273 10.8969 7.20336 10.9594L7.13148 11.4875C7.08461 11.8219 6.82211 12.0844 6.49086 12.1313L6.00023 12.1938V15.5C6.00023 15.6844 5.90023 15.8531 5.73461 15.9406C5.56898 16.0281 5.37523 16.0187 5.22211 15.9156L4.00023 15.1L2.77836 15.9156C2.62523 16.0187 2.42836 16.0281 2.26586 15.9406C2.10336 15.8531 2.00023 15.6844 2.00023 15.5V12.1938L1.51586 12.1281C1.18148 12.0813 0.918984 11.8188 0.875234 11.4844L0.803359 10.9563C0.793984 10.8906 0.759609 10.8313 0.709609 10.7937L0.284609 10.4656C0.0189837 10.2594 -0.0778913 9.9 0.0502337 9.5875L0.250234 9.09375C0.275234 9.03438 0.275234 8.96562 0.250234 8.90312L0.0502337 8.4125C-0.0778913 8.1 0.0189837 7.74063 0.284609 7.53438L0.706484 7.20625C0.759609 7.16563 0.790859 7.10625 0.800234 7.04375L0.872109 6.51562C0.918984 6.18125 1.18148 5.91875 1.51273 5.875L2.04086 5.80312C2.10648 5.79375 2.16586 5.75938 2.20336 5.70937L2.53148 5.2875C2.73773 5.02187 3.09711 4.925 3.40961 5.05312L3.41273 5.05ZM6.00023 9C6.00023 8.46957 5.78952 7.96086 5.41445 7.58579C5.03937 7.21071 4.53067 7 4.00023 7C3.4698 7 2.96109 7.21071 2.58602 7.58579C2.21095 7.96086 2.00023 8.46957 2.00023 9C2.00023 9.53043 2.21095 10.0391 2.58602 10.4142C2.96109 10.7893 3.4698 11 4.00023 11C4.53067 11 5.03937 10.7893 5.41445 10.4142C5.78952 10.0391 6.00023 9.53043 6.00023 9Z" fill="#1F2937"/>
</svg>
