<svg width="16" height="14" viewBox="0 0 16 14" fill="none" xmlns="http://www.w3.org/2000/svg">
<path d="M14 14H2C0.896875 14 0 13.1031 0 12V2C0 0.896875 0.896875 0 2 0H6C6.62813 0 7.22187 0.296875 7.6 0.8L8.2 1.6C8.3875 1.85312 8.68437 2 9 2H14C15.1031 2 16 2.89687 16 4V12C16 13.1031 15.1031 14 14 14ZM3.25 6.5C2.83437 6.5 2.5 6.83437 2.5 7.25V8.75C2.5 9.16562 2.83437 9.5 3.25 9.5H4.75C5.16563 9.5 5.5 9.16562 5.5 8.75V7.25C5.5 6.83437 5.16563 6.5 4.75 6.5H3.25ZM7.25 6.5C6.83437 6.5 6.5 6.83437 6.5 7.25V8.75C6.5 9.16562 6.83437 9.5 7.25 9.5H8.75C9.16562 9.5 9.5 9.16562 9.5 8.75V7.25C9.5 6.83437 9.16562 6.5 8.75 6.5H7.25ZM10.5 7.25V8.75C10.5 9.16562 10.8344 9.5 11.25 9.5H12.75C13.1656 9.5 13.5 9.16562 13.5 8.75V7.25C13.5 6.83437 13.1656 6.5 12.75 6.5H11.25C10.8344 6.5 10.5 6.83437 10.5 7.25Z" fill="#1F2937"/>
</svg>
