<svg width="20" height="18" viewBox="0 0 20 18" fill="none" xmlns="http://www.w3.org/2000/svg">
<path d="M17.2004 17.4001H2.80039C1.47664 17.4001 0.400391 16.3238 0.400391 15.0001V3.0001C0.400391 1.67635 1.47664 0.600098 2.80039 0.600098H7.60039C8.35414 0.600098 9.06664 0.956348 9.52039 1.5601L10.2404 2.5201C10.4654 2.82385 10.8216 3.0001 11.2004 3.0001H17.2004C18.5241 3.0001 19.6004 4.07635 19.6004 5.4001V15.0001C19.6004 16.3238 18.5241 17.4001 17.2004 17.4001ZM13.0004 9.6001C13.0004 7.6126 11.3879 6.0001 9.40039 6.0001C7.41289 6.0001 5.80039 7.6126 5.80039 9.6001C5.80039 11.5876 7.41289 13.2001 9.40039 13.2001C10.0679 13.2001 10.6904 13.0201 11.2266 12.7051L12.6629 14.1413C13.0154 14.4938 13.5854 14.4938 13.9341 14.1413C14.2829 13.7888 14.2866 13.2188 13.9341 12.8701L12.4979 11.4338C12.8166 10.8976 12.9966 10.2713 12.9966 9.6001H13.0004ZM9.40039 7.8001C9.87778 7.8001 10.3356 7.98974 10.6732 8.3273C11.0107 8.66487 11.2004 9.12271 11.2004 9.6001C11.2004 10.0775 11.0107 10.5353 10.6732 10.8729C10.3356 11.2105 9.87778 11.4001 9.40039 11.4001C8.923 11.4001 8.46516 11.2105 8.1276 10.8729C7.79003 10.5353 7.60039 10.0775 7.60039 9.6001C7.60039 9.12271 7.79003 8.66487 8.1276 8.3273C8.46516 7.98974 8.923 7.8001 9.40039 7.8001Z" fill="#6B7280"/>
</svg>
