<svg width="24" height="24" viewBox="0 0 24 24" fill="none" xmlns="http://www.w3.org/2000/svg">
<path d="M22.2222 0.000153809V0.00151335H1.771C0.804381 -0.00936299 0.0117825 0.76467 0 1.7313V22.2676C0.0113293 23.2347 0.803928 24.0097 1.771 23.9997H22.2222C23.1911 24.0115 23.9869 23.2365 24 22.2676V1.72994C23.9864 0.761497 23.1906 -0.0125353 22.2222 0.000153809ZM7.11752 20.4495H3.55786V8.9967H7.11752V20.4495ZM5.33973 7.43141C4.2 7.43141 3.27598 6.50783 3.27553 5.36808C3.27553 4.22833 4.19909 3.30429 5.33882 3.30384C6.47855 3.30384 7.40257 4.22742 7.40302 5.36717C7.40302 6.50692 6.47946 7.43096 5.33973 7.43141ZM20.4494 20.4495H16.8934V14.8803C16.8934 13.5521 16.8693 11.8427 15.0435 11.8427C13.2177 11.8427 12.9082 13.2897 12.9082 14.7834V20.449H9.35211V8.9967H12.7659V10.562H12.8134C13.51 9.37148 14.8042 8.66089 16.1819 8.71165C19.786 8.71165 20.4508 11.0827 20.4508 14.1666L20.4494 20.4495Z" fill="#D1D5DB"/>
</svg>
