<svg width="20" height="17" viewBox="0 0 20 17" fill="none" xmlns="http://www.w3.org/2000/svg">
<path d="M6.10406 0.832806C6.47531 1.16656 6.50531 1.73281 6.17156 2.10406L3.47156 5.10406C3.30656 5.28781 3.07406 5.39656 2.82656 5.40031C2.57906 5.40406 2.34281 5.31031 2.16656 5.13781L0.662812 3.63781C0.314062 3.28531 0.314062 2.71531 0.662812 2.36281C1.01156 2.01031 1.58531 2.01031 1.93406 2.36281L2.76281 3.19156L4.82906 0.896556C5.16281 0.525306 5.72906 0.495306 6.10031 0.829056L6.10406 0.832806ZM6.10406 6.83281C6.47531 7.16656 6.50531 7.73281 6.17156 8.10406L3.47156 11.1041C3.30656 11.2878 3.07406 11.3966 2.82656 11.4003C2.57906 11.4041 2.34281 11.3103 2.16656 11.1378L0.662812 9.63781C0.310313 9.28531 0.310313 8.71531 0.662812 8.36656C1.01531 8.01781 1.58531 8.01406 1.93406 8.36656L2.76281 9.19531L4.82906 6.90031C5.16281 6.52906 5.72906 6.49906 6.10031 6.83281H6.10406ZM8.80031 3.00031C8.80031 2.33656 9.33656 1.80031 10.0003 1.80031H18.4003C19.0641 1.80031 19.6003 2.33656 19.6003 3.00031C19.6003 3.66406 19.0641 4.20031 18.4003 4.20031H10.0003C9.33656 4.20031 8.80031 3.66406 8.80031 3.00031ZM8.80031 9.00031C8.80031 8.33656 9.33656 7.80031 10.0003 7.80031H18.4003C19.0641 7.80031 19.6003 8.33656 19.6003 9.00031C19.6003 9.66406 19.0641 10.2003 18.4003 10.2003H10.0003C9.33656 10.2003 8.80031 9.66406 8.80031 9.00031ZM6.40031 15.0003C6.40031 14.3366 6.93656 13.8003 7.60031 13.8003H18.4003C19.0641 13.8003 19.6003 14.3366 19.6003 15.0003C19.6003 15.6641 19.0641 16.2003 18.4003 16.2003H7.60031C6.93656 16.2003 6.40031 15.6641 6.40031 15.0003ZM2.20031 13.2003C2.6777 13.2003 3.13554 13.3899 3.4731 13.7275C3.81067 14.0651 4.00031 14.5229 4.00031 15.0003C4.00031 15.4777 3.81067 15.9355 3.4731 16.2731C3.13554 16.6107 2.6777 16.8003 2.20031 16.8003C1.72292 16.8003 1.26509 16.6107 0.92752 16.2731C0.589955 15.9355 0.400312 15.4777 0.400312 15.0003C0.400312 14.5229 0.589955 14.0651 0.92752 13.7275C1.26509 13.3899 1.72292 13.2003 2.20031 13.2003Z" fill="#6B7280"/>
</svg>
