<svg width="297" height="178" viewBox="0 0 297 178" fill="none" xmlns="http://www.w3.org/2000/svg">
<path d="M122.746 0C128.679 0 133.5 4.82083 133.5 10.7542C133.5 15.0187 130.811 18.7734 127.381 21.3229C122.004 25.3557 118.667 30.9182 118.667 37.0833C118.667 49.3672 131.97 59.3333 148.333 59.3333C164.696 59.3333 178 49.3672 178 37.0833C178 30.9182 174.663 25.3557 169.285 21.3229C165.855 18.7734 163.167 15.0187 163.167 10.7542C163.167 4.82083 167.988 0 173.921 0H215.083C227.367 0 237.333 9.96615 237.333 22.25V63.4125C237.333 69.3458 242.154 74.1667 248.088 74.1667C252.352 74.1667 256.107 71.4781 258.656 68.0479C262.689 62.6708 268.252 59.3333 274.417 59.3333C286.701 59.3333 296.667 72.637 296.667 89C296.667 105.363 286.701 118.667 274.417 118.667C268.252 118.667 262.689 115.329 258.656 109.952C256.107 106.522 252.352 103.833 248.088 103.833C242.154 103.833 237.333 108.654 237.333 114.588V155.75C237.333 168.034 227.367 178 215.083 178H173.921C167.988 178 163.167 173.179 163.167 167.246C163.167 162.981 165.855 159.227 169.285 156.677C174.663 152.644 178 147.082 178 140.917C178 128.633 164.696 118.667 148.333 118.667C131.97 118.667 118.667 128.633 118.667 140.917C118.667 147.082 122.004 152.644 127.381 156.677C130.811 159.227 133.5 162.981 133.5 167.246C133.5 173.179 128.679 178 122.746 178H81.5833C69.2995 178 59.3333 168.034 59.3333 155.75V114.588C59.3333 108.654 54.5125 103.833 48.5792 103.833C44.3146 103.833 40.5599 106.522 38.0104 109.952C33.9776 115.329 28.4151 118.667 22.25 118.667C9.96615 118.667 0 105.363 0 89C0 72.637 9.96615 59.3333 22.25 59.3333C28.4151 59.3333 33.9776 62.6708 38.0104 68.0479C40.5599 71.4781 44.3146 74.1667 48.5792 74.1667C54.5125 74.1667 59.3333 69.3458 59.3333 63.4125V22.25C59.3333 9.96615 69.2995 0 81.5833 0H122.746Z" fill="url(#paint0_linear_1633_18210)" fill-opacity="0.25"/>
<defs>
<linearGradient id="paint0_linear_1633_18210" x1="148.333" y1="0" x2="148.333" y2="178" gradientUnits="userSpaceOnUse">
<stop stop-color="#E5E7EB"/>
<stop offset="1" stop-color="#E5E7EB" stop-opacity="0.4"/>
</linearGradient>
</defs>
</svg>
