<svg width="203" height="178" viewBox="0 0 203 178" fill="none" xmlns="http://www.w3.org/2000/svg">
<path d="M12.7143 0C19.7469 0 25.4286 5.6817 25.4286 12.7143V146.214C25.4286 149.711 28.2893 152.571 31.7857 152.571H190.714C197.747 152.571 203.429 158.253 203.429 165.286C203.429 172.318 197.747 178 190.714 178H31.7857C14.2241 178 0 163.776 0 146.214V12.7143C0 5.6817 5.6817 0 12.7143 0ZM63.5714 76.2857C70.604 76.2857 76.2857 81.9674 76.2857 89V114.429C76.2857 121.461 70.604 127.143 63.5714 127.143C56.5388 127.143 50.8571 121.461 50.8571 114.429V89C50.8571 81.9674 56.5388 76.2857 63.5714 76.2857ZM114.429 50.8571V114.429C114.429 121.461 108.747 127.143 101.714 127.143C94.6817 127.143 89 121.461 89 114.429V50.8571C89 43.8246 94.6817 38.1429 101.714 38.1429C108.747 38.1429 114.429 43.8246 114.429 50.8571ZM139.857 63.5714C146.89 63.5714 152.571 69.2531 152.571 76.2857V114.429C152.571 121.461 146.89 127.143 139.857 127.143C132.825 127.143 127.143 121.461 127.143 114.429V76.2857C127.143 69.2531 132.825 63.5714 139.857 63.5714ZM190.714 25.4286V114.429C190.714 121.461 185.033 127.143 178 127.143C170.967 127.143 165.286 121.461 165.286 114.429V25.4286C165.286 18.396 170.967 12.7143 178 12.7143C185.033 12.7143 190.714 18.396 190.714 25.4286Z" fill="url(#paint0_linear_1633_18231)" fill-opacity="0.25"/>
<defs>
<linearGradient id="paint0_linear_1633_18231" x1="101.714" y1="0" x2="101.714" y2="178" gradientUnits="userSpaceOnUse">
<stop stop-color="#E5E7EB"/>
<stop offset="1" stop-color="#E5E7EB" stop-opacity="0.4"/>
</linearGradient>
</defs>
</svg>
