<svg width="203" height="178" viewBox="0 0 203 178" fill="none" xmlns="http://www.w3.org/2000/svg">
<path d="M178 178H25.4286C11.4031 178 0 166.597 0 152.571V25.4286C0 11.4031 11.4031 0 25.4286 0H76.2857C84.2719 0 91.821 3.77455 96.6286 10.1714L104.257 20.3429C106.641 23.5612 110.416 25.4286 114.429 25.4286H178C192.025 25.4286 203.429 36.8317 203.429 50.8571V152.571C203.429 166.597 192.025 178 178 178ZM133.5 95.3571C133.5 74.2991 116.415 57.2143 95.3571 57.2143C74.2991 57.2143 57.2143 74.2991 57.2143 95.3571C57.2143 116.415 74.2991 133.5 95.3571 133.5C102.429 133.5 109.025 131.593 114.707 128.255L129.924 143.473C133.659 147.208 139.698 147.208 143.393 143.473C147.088 139.738 147.128 133.699 143.393 130.004L128.176 114.786C131.553 109.104 133.46 102.469 133.46 95.3571H133.5ZM95.3571 76.2857C100.415 76.2857 105.266 78.295 108.843 81.8716C112.419 85.4482 114.429 90.2991 114.429 95.3571C114.429 100.415 112.419 105.266 108.843 108.843C105.266 112.419 100.415 114.429 95.3571 114.429C90.2991 114.429 85.4482 112.419 81.8716 108.843C78.295 105.266 76.2857 100.415 76.2857 95.3571C76.2857 90.2991 78.295 85.4482 81.8716 81.8716C85.4482 78.295 90.2991 76.2857 95.3571 76.2857Z" fill="url(#paint0_linear_1633_18224)" fill-opacity="0.25"/>
<defs>
<linearGradient id="paint0_linear_1633_18224" x1="101.714" y1="0" x2="101.714" y2="178" gradientUnits="userSpaceOnUse">
<stop stop-color="#E5E7EB"/>
<stop offset="1" stop-color="#E5E7EB" stop-opacity="0.4"/>
</linearGradient>
</defs>
</svg>
