<svg width="24" height="16" viewBox="0 0 24 16" fill="none" xmlns="http://www.w3.org/2000/svg">
<path d="M9.93 0.799805C10.41 0.799805 10.8 1.1898 10.8 1.6698C10.8 2.0148 10.5825 2.31855 10.305 2.5248C9.87 2.85105 9.6 3.30105 9.6 3.7998C9.6 4.79355 10.6762 5.5998 12 5.5998C13.3238 5.5998 14.4 4.79355 14.4 3.7998C14.4 3.30105 14.13 2.85105 13.695 2.5248C13.4175 2.31855 13.2 2.0148 13.2 1.6698C13.2 1.1898 13.59 0.799805 14.07 0.799805H17.4C18.3938 0.799805 19.2 1.60605 19.2 2.5998V5.9298C19.2 6.4098 19.59 6.7998 20.07 6.7998C20.415 6.7998 20.7188 6.5823 20.925 6.3048C21.2513 5.8698 21.7013 5.5998 22.2 5.5998C23.1938 5.5998 24 6.67605 24 7.9998C24 9.32355 23.1938 10.3998 22.2 10.3998C21.7013 10.3998 21.2513 10.1298 20.925 9.6948C20.7188 9.4173 20.415 9.1998 20.07 9.1998C19.59 9.1998 19.2 9.5898 19.2 10.0698V13.3998C19.2 14.3936 18.3938 15.1998 17.4 15.1998H14.07C13.59 15.1998 13.2 14.8098 13.2 14.3298C13.2 13.9848 13.4175 13.6811 13.695 13.4748C14.13 13.1486 14.4 12.6986 14.4 12.1998C14.4 11.2061 13.3238 10.3998 12 10.3998C10.6762 10.3998 9.6 11.2061 9.6 12.1998C9.6 12.6986 9.87 13.1486 10.305 13.4748C10.5825 13.6811 10.8 13.9848 10.8 14.3298C10.8 14.8098 10.41 15.1998 9.93 15.1998H6.6C5.60625 15.1998 4.8 14.3936 4.8 13.3998V10.0698C4.8 9.5898 4.41 9.1998 3.93 9.1998C3.585 9.1998 3.28125 9.4173 3.075 9.6948C2.74875 10.1298 2.29875 10.3998 1.8 10.3998C0.80625 10.3998 0 9.32355 0 7.9998C0 6.67605 0.80625 5.5998 1.8 5.5998C2.29875 5.5998 2.74875 5.8698 3.075 6.3048C3.28125 6.5823 3.585 6.7998 3.93 6.7998C4.41 6.7998 4.8 6.4098 4.8 5.9298V2.5998C4.8 1.60605 5.60625 0.799805 6.6 0.799805H9.93Z" fill="#6B7280"/>
</svg>
