<svg width="211" height="178" viewBox="0 0 211 178" fill="none" xmlns="http://www.w3.org/2000/svg">
<path d="M62.6793 2.58861C66.7577 6.25503 67.0872 12.4756 63.4208 16.554L33.7599 49.5105C31.9473 51.5291 29.3931 52.7238 26.6742 52.765C23.9553 52.8062 21.36 51.7763 19.4238 49.8813L2.9043 33.403C-0.926904 29.5306 -0.926904 23.2689 2.9043 19.3965C6.7355 15.5241 13.0384 15.5241 16.8696 19.3965L25.9739 28.5007L48.6727 3.28894C52.3392 -0.789439 58.5597 -1.11901 62.6381 2.54741L62.6793 2.58861ZM62.6793 68.5018C66.7577 72.1682 67.0872 78.3887 63.4208 82.4671L33.7599 115.424C31.9473 117.442 29.3931 118.637 26.6742 118.678C23.9553 118.719 21.36 117.689 19.4238 115.794L2.9043 99.3162C-0.968099 95.4438 -0.968099 89.182 2.9043 85.3508C6.7767 81.5196 13.0384 81.4784 16.8696 85.3508L25.9739 94.4551L48.6727 69.2433C52.3392 65.1649 58.5597 64.8353 62.6381 68.5018H62.6793ZM92.299 26.3997C92.299 19.1081 98.19 13.2171 105.482 13.2171H197.76C205.052 13.2171 210.943 19.1081 210.943 26.3997C210.943 33.6914 205.052 39.5824 197.76 39.5824H105.482C98.19 39.5824 92.299 33.6914 92.299 26.3997ZM92.299 92.3129C92.299 85.0212 98.19 79.1303 105.482 79.1303H197.76C205.052 79.1303 210.943 85.0212 210.943 92.3129C210.943 99.6045 205.052 105.496 197.76 105.496H105.482C98.19 105.496 92.299 99.6045 92.299 92.3129ZM65.9338 158.226C65.9338 150.934 71.8247 145.043 79.1164 145.043H197.76C205.052 145.043 210.943 150.934 210.943 158.226C210.943 165.518 205.052 171.409 197.76 171.409H79.1164C71.8247 171.409 65.9338 165.518 65.9338 158.226ZM19.7945 138.452C25.0389 138.452 30.0685 140.535 33.7768 144.244C37.4852 147.952 39.5685 152.982 39.5685 158.226C39.5685 163.47 37.4852 168.5 33.7768 172.208C30.0685 175.917 25.0389 178 19.7945 178C14.5502 178 9.52059 175.917 5.81225 172.208C2.10392 168.5 0.0205977 163.47 0.0205977 158.226C0.0205977 152.982 2.10392 147.952 5.81225 144.244C9.52059 140.535 14.5502 138.452 19.7945 138.452Z" fill="url(#paint0_linear_1633_18217)" fill-opacity="0.25"/>
<defs>
<linearGradient id="paint0_linear_1633_18217" x1="105.471" y1="0" x2="105.471" y2="178" gradientUnits="userSpaceOnUse">
<stop stop-color="#E5E7EB"/>
<stop offset="1" stop-color="#E5E7EB" stop-opacity="0.4"/>
</linearGradient>
</defs>
</svg>
