<svg width="20" height="20" viewBox="0 0 20 20" fill="none" xmlns="http://www.w3.org/2000/svg">
<g clip-path="url(#clip0_1652_105)">
<path d="M12.23 4.66C12.09 4.71 12 4.85 12 5C12 5.15 12.09 5.28 12.23 5.34L14 6L14.66 7.77C14.71 7.91 14.85 8 15 8C15.15 8 15.28 7.91 15.34 7.77L16 6L17.77 5.34C17.91 5.29 18 5.15 18 5C18 4.85 17.91 4.72 17.77 4.66L16 4L15.34 2.23C15.29 2.09 15.15 2 15 2C14.85 2 14.72 2.09 14.66 2.23L14 4L12.23 4.66Z" fill="#A5B4FC"/>
<path d="M8.41 4.29C8.33 4.11 8.15 4 7.96 4C7.77 4 7.59 4.11 7.51 4.29L5.86 7.85L2.29 9.5C2.11 9.58 2 9.76 2 9.96C2 10.16 2.11 10.33 2.29 10.41L5.86 12.06L7.5 15.62C7.58 15.8 7.76 15.91 7.95 15.91C8.14 15.91 8.32 15.8 8.4 15.62L10.05 12.05L13.62 10.4C13.8 10.32 13.91 10.14 13.91 9.95C13.91 9.76 13.8 9.58 13.62 9.5L10.06 7.86L8.41 4.29Z" fill="#6366F1"/>
<path d="M14 14L12.23 14.66C12.09 14.71 12 14.85 12 15C12 15.15 12.09 15.28 12.23 15.34L14 16L14.66 17.77C14.71 17.91 14.85 18 15 18C15.15 18 15.28 17.91 15.34 17.77L16 16L17.77 15.34C17.91 15.29 18 15.15 18 15C18 14.85 17.91 14.72 17.77 14.66L16 14L15.34 12.23C15.29 12.09 15.15 12 15 12C14.85 12 14.72 12.09 14.66 12.23L14 14Z" fill="#A5B4FC"/>
</g>
<defs>
<clipPath id="clip0_1652_105">
<rect width="16" height="16" fill="white" transform="translate(2 2)"/>
</clipPath>
</defs>
</svg>
