<svg width="410" height="352" viewBox="0 0 410 352" fill="none" xmlns="http://www.w3.org/2000/svg">
<path d="M403.041 280.707L245.872 22.8949C227.364 -7.63164 182.564 -7.63164 164.056 22.8949L7.03353 280.707C-15.8809 318.178 20.9878 363.317 62.9975 349.428L174.779 312.825C194.315 306.315 215.613 306.315 235.149 312.825L346.931 349.428C388.94 363.317 425.809 318.178 403.041 280.707ZM240.437 219.364L212.529 210.25C207.681 208.658 202.393 208.658 197.399 210.25L169.491 219.364C158.915 222.837 149.808 211.552 155.536 202.148L194.755 137.767C199.456 130.1 210.619 130.1 215.173 137.767L254.538 202.148C260.12 211.552 251.013 222.837 240.437 219.364Z" fill="url(#paint0_linear_1023_11480)" fill-opacity="0.05"/>
<defs>
<linearGradient id="paint0_linear_1023_11480" x1="205" y1="0" x2="205" y2="352" gradientUnits="userSpaceOnUse">
<stop stop-color="#F9FAFB"/>
<stop offset="1" stop-color="#F9FAFB" stop-opacity="0.2"/>
</linearGradient>
</defs>
</svg>
