<svg width="20" height="20" viewBox="0 0 20 20" fill="none" xmlns="http://www.w3.org/2000/svg">
<path d="M8.33437 3.33438L7.15625 3.775C7.0625 3.80937 7 3.9 7 4C7 4.1 7.0625 4.19062 7.15625 4.225L8.33437 4.66563L8.775 5.84375C8.80938 5.9375 8.9 6 9 6C9.1 6 9.19063 5.9375 9.225 5.84375L9.66562 4.66563L10.8438 4.225C10.9375 4.19062 11 4.1 11 4C11 3.9 10.9375 3.80937 10.8438 3.775L9.66562 3.33438L9.225 2.15625C9.19063 2.0625 9.1 2 9 2C8.9 2 8.80938 2.0625 8.775 2.15625L8.33437 3.33438ZM2.44062 14.3562C1.85625 14.9406 1.85625 15.8906 2.44062 16.4781L3.52187 17.5594C4.10625 18.1437 5.05625 18.1437 5.64375 17.5594L17.5594 5.64062C18.1438 5.05625 18.1438 4.10625 17.5594 3.51875L16.4781 2.44063C15.8937 1.85625 14.9437 1.85625 14.3562 2.44063L2.44062 14.3562ZM16.1438 4.58125L12.8625 7.8625L12.1344 7.13438L15.4156 3.85312L16.1438 4.58125ZM1.23438 5.6625C1.09375 5.71562 1 5.85 1 6C1 6.15 1.09375 6.28438 1.23438 6.3375L3 7L3.6625 8.76562C3.71562 8.90625 3.85 9 4 9C4.15 9 4.28438 8.90625 4.3375 8.76562L5 7L6.76562 6.3375C6.90625 6.28438 7 6.15 7 6C7 5.85 6.90625 5.71562 6.76562 5.6625L5 5L4.3375 3.23438C4.28438 3.09375 4.15 3 4 3C3.85 3 3.71562 3.09375 3.6625 3.23438L3 5L1.23438 5.6625ZM12.2344 13.6625C12.0938 13.7156 12 13.85 12 14C12 14.15 12.0938 14.2844 12.2344 14.3375L14 15L14.6625 16.7656C14.7156 16.9062 14.85 17 15 17C15.15 17 15.2844 16.9062 15.3375 16.7656L16 15L17.7656 14.3375C17.9062 14.2844 18 14.15 18 14C18 13.85 17.9062 13.7156 17.7656 13.6625L16 13L15.3375 11.2344C15.2844 11.0938 15.15 11 15 11C14.85 11 14.7156 11.0938 14.6625 11.2344L14 13L12.2344 13.6625Z" fill="#1F2937"/>
</svg>
