<svg id="eBpIsd5GR7A1" xmlns="http://www.w3.org/2000/svg" xmlns:xlink="http://www.w3.org/1999/xlink" viewBox="0 0 160 184" shape-rendering="geometricPrecision" text-rendering="geometricPrecision" project-id="0fe4a111055d4db4acfd674b3b6ca7d1" export-id="0eb4de72c8c640fa89bde0c97ae3880f" cached="false">
<style><![CDATA[
#eBpIsd5GR7A8_to {animation: eBpIsd5GR7A8_to__to 5300ms linear infinite normal forwards}@keyframes eBpIsd5GR7A8_to__to { 0% {transform: translate(46.674998px,30.174px);animation-timing-function: cubic-bezier(0,0,0.58,1)} 3.773585% {transform: translate(46.674998px,28.178px);animation-timing-function: cubic-bezier(0,0,0.58,1)} 52.830189% {transform: translate(46.674998px,28.178px);animation-timing-function: cubic-bezier(0,0,0.58,1)} 54.716981% {transform: translate(46.674998px,26.174px)} 100% {transform: translate(46.674998px,26.174px)}} #eBpIsd5GR7A8 {animation: eBpIsd5GR7A8_c_o 5300ms linear infinite normal forwards}@keyframes eBpIsd5GR7A8_c_o { 0% {opacity: 0;animation-timing-function: cubic-bezier(0,0,0.58,1)} 3.773585% {opacity: 1;animation-timing-function: cubic-bezier(0,0,0.58,1)} 52.830189% {opacity: 1;animation-timing-function: cubic-bezier(0,0,0.58,1)} 54.716981% {opacity: 0;animation-timing-function: cubic-bezier(0,0,0.58,1)} 96.226415% {opacity: 0;animation-timing-function: cubic-bezier(0,0,0.58,1)} 100% {opacity: 0}} #eBpIsd5GR7A9_to {animation: eBpIsd5GR7A9_to__to 5300ms linear infinite normal forwards}@keyframes eBpIsd5GR7A9_to__to { 0% {transform: translate(134px,27px)} 3.773585% {transform: translate(134px,27px);animation-timing-function: cubic-bezier(0,0,0.58,1)} 7.54717% {transform: translate(134px,26px);animation-timing-function: cubic-bezier(0,0,0.58,1)} 71.698113% {transform: translate(134px,26px)} 100% {transform: translate(134px,26px)}} #eBpIsd5GR7A9_ts {animation: eBpIsd5GR7A9_ts__ts 5300ms linear infinite normal forwards}@keyframes eBpIsd5GR7A9_ts__ts { 0% {transform: scale(1,1)} 32.075472% {transform: scale(1,1);animation-timing-function: cubic-bezier(0,0,0.58,1)} 35.849057% {transform: scale(1,1);animation-timing-function: cubic-bezier(0,0,0.58,1)} 39.622642% {transform: scale(1,1);animation-timing-function: cubic-bezier(0,0,0.58,1)} 71.698113% {transform: scale(1,1);animation-timing-function: cubic-bezier(0,0,0.58,1)} 75.471698% {transform: scale(0.8,0.8)} 100% {transform: scale(0.8,0.8)}} #eBpIsd5GR7A9 {animation: eBpIsd5GR7A9_c_o 5300ms linear infinite normal forwards}@keyframes eBpIsd5GR7A9_c_o { 0% {opacity: 0} 3.773585% {opacity: 0;animation-timing-function: cubic-bezier(0,0,0.58,1)} 7.54717% {opacity: 1;animation-timing-function: cubic-bezier(0,0,0.58,1)} 71.698113% {opacity: 1;animation-timing-function: cubic-bezier(0,0,0.58,1)} 75.471698% {opacity: 0;animation-timing-function: cubic-bezier(0,0,0.58,1)} 96.226415% {opacity: 0;animation-timing-function: cubic-bezier(0,0,0.58,1)} 100% {opacity: 0}} #eBpIsd5GR7A10 {animation: eBpIsd5GR7A10_f_p 5300ms linear infinite normal forwards}@keyframes eBpIsd5GR7A10_f_p { 0% {fill: #ede9fe} 32.075472% {fill: #ede9fe;animation-timing-function: cubic-bezier(0,0,0.58,1)} 39.622642% {fill: #8b5cf6;animation-timing-function: cubic-bezier(0,0,0.58,1)} 73.584906% {fill: #8b5cf6;animation-timing-function: cubic-bezier(0,0,0.58,1)} 77.358491% {fill: #ede9fe} 100% {fill: #ede9fe}} #eBpIsd5GR7A13 {animation-name: eBpIsd5GR7A13_c_o, eBpIsd5GR7A13_f_p;animation-duration: 5300ms;animation-fill-mode: forwards;animation-timing-function: linear;animation-direction: normal;animation-iteration-count: infinite;}@keyframes eBpIsd5GR7A13_c_o { 0% {opacity: 1} 35.849057% {opacity: 1;animation-timing-function: cubic-bezier(0,0,0.58,1)} 41.509434% {opacity: 0;animation-timing-function: cubic-bezier(0,0,0.58,1)} 47.169811% {opacity: 1;animation-timing-function: cubic-bezier(0,0,0.58,1)} 58.490566% {opacity: 1;animation-timing-function: cubic-bezier(0,0,0.58,1)} 69.811321% {opacity: 1;animation-timing-function: cubic-bezier(0,0,0.398317,0.447874)} 75.471698% {opacity: 0;animation-timing-function: cubic-bezier(0.263662,0.434142,0.670515,1)} 96.226415% {opacity: 1;animation-timing-function: cubic-bezier(0,0,0.58,1)} 100% {opacity: 1}}@keyframes eBpIsd5GR7A13_f_p { 0% {fill: #8b5cf6} 32.075472% {fill: #8b5cf6;animation-timing-function: cubic-bezier(0,0,0.58,1)} 35.849057% {fill: #f9fafb;animation-timing-function: cubic-bezier(0,0,0.58,1)} 73.584906% {fill: #f9fafb;animation-timing-function: cubic-bezier(0,0,0.58,1)} 77.358491% {fill: #8b5cf6} 100% {fill: #8b5cf6}} #eBpIsd5GR7A14 {animation-name: eBpIsd5GR7A14_c_o, eBpIsd5GR7A14_f_p;animation-duration: 5300ms;animation-fill-mode: forwards;animation-timing-function: linear;animation-direction: normal;animation-iteration-count: infinite;}@keyframes eBpIsd5GR7A14_c_o { 0% {opacity: 1} 35.849057% {opacity: 1;animation-timing-function: cubic-bezier(0,0,0.58,1)} 47.169811% {opacity: 1;animation-timing-function: cubic-bezier(0,0,0.58,1)} 52.830189% {opacity: 0;animation-timing-function: cubic-bezier(0,0,0.58,1)} 58.490566% {opacity: 1;animation-timing-function: cubic-bezier(0,0,0.58,1)} 69.811321% {opacity: 1;animation-timing-function: cubic-bezier(0,0,0.58,1)} 96.226415% {opacity: 1;animation-timing-function: cubic-bezier(0,0,0.58,1)} 100% {opacity: 0}}@keyframes eBpIsd5GR7A14_f_p { 0% {fill: #8b5cf6} 32.075472% {fill: #8b5cf6;animation-timing-function: cubic-bezier(0,0,0.58,1)} 35.849057% {fill: #f9fafb;animation-timing-function: cubic-bezier(0,0,0.58,1)} 73.584906% {fill: #f9fafb;animation-timing-function: cubic-bezier(0,0,0.58,1)} 77.358491% {fill: #8b5cf6} 100% {fill: #8b5cf6}} #eBpIsd5GR7A15 {animation-name: eBpIsd5GR7A15_c_o, eBpIsd5GR7A15_f_p;animation-duration: 5300ms;animation-fill-mode: forwards;animation-timing-function: linear;animation-direction: normal;animation-iteration-count: infinite;}@keyframes eBpIsd5GR7A15_c_o { 0% {opacity: 1} 58.490566% {opacity: 1;animation-timing-function: cubic-bezier(0,0,0.58,1)} 64.150943% {opacity: 0;animation-timing-function: cubic-bezier(0,0,0.58,1)} 69.811321% {opacity: 1} 100% {opacity: 1}}@keyframes eBpIsd5GR7A15_f_p { 0% {fill: #8b5cf6} 32.075472% {fill: #8b5cf6;animation-timing-function: cubic-bezier(0,0,0.58,1)} 35.849057% {fill: #f9fafb;animation-timing-function: cubic-bezier(0,0,0.58,1)} 73.584906% {fill: #f9fafb;animation-timing-function: cubic-bezier(0,0,0.58,1)} 77.358491% {fill: #8b5cf6} 100% {fill: #8b5cf6}} #eBpIsd5GR7A18_to {animation: eBpIsd5GR7A18_to__to 5300ms linear infinite normal forwards}@keyframes eBpIsd5GR7A18_to__to { 0% {transform: translate(50.9725px,62.003349px)} 7.54717% {transform: translate(50.9725px,62.003349px);animation-timing-function: cubic-bezier(0,0,0.58,1)} 9.433962% {transform: translate(50.9725px,59.999949px);animation-timing-function: cubic-bezier(0,0,0.58,1)} 49.056604% {transform: translate(50.9725px,59.999949px);animation-timing-function: cubic-bezier(0,0,0.58,1)} 50.943396% {transform: translate(50.9725px,58.003349px)} 100% {transform: translate(50.9725px,58.003349px)}} #eBpIsd5GR7A18 {animation: eBpIsd5GR7A18_c_o 5300ms linear infinite normal forwards}@keyframes eBpIsd5GR7A18_c_o { 0% {opacity: 0} 7.54717% {opacity: 0;animation-timing-function: cubic-bezier(0,0,0.58,1)} 9.433962% {opacity: 1;animation-timing-function: cubic-bezier(0,0,0.58,1)} 49.056604% {opacity: 1;animation-timing-function: cubic-bezier(0,0,0.58,1)} 50.943396% {opacity: 0;animation-timing-function: cubic-bezier(0,0,0.58,1)} 96.226415% {opacity: 0;animation-timing-function: cubic-bezier(0,0,0.58,1)} 100% {opacity: 0}} #eBpIsd5GR7A26_to {animation: eBpIsd5GR7A26_to__to 5300ms linear infinite normal forwards}@keyframes eBpIsd5GR7A26_to__to { 0% {transform: translate(51.63395px,86.109697px)} 11.320755% {transform: translate(51.63395px,86.109697px);animation-timing-function: cubic-bezier(0,0,0.58,1)} 13.207547% {transform: translate(51.63395px,84.106301px);animation-timing-function: cubic-bezier(0,0,0.58,1)} 45.283019% {transform: translate(51.63395px,84.106301px);animation-timing-function: cubic-bezier(0,0,0.58,1)} 47.169811% {transform: translate(51.63395px,82.109697px)} 100% {transform: translate(51.63395px,82.109697px)}} #eBpIsd5GR7A26 {animation: eBpIsd5GR7A26_c_o 5300ms linear infinite normal forwards}@keyframes eBpIsd5GR7A26_c_o { 0% {opacity: 0} 11.320755% {opacity: 0;animation-timing-function: cubic-bezier(0,0,0.58,1)} 13.207547% {opacity: 1;animation-timing-function: cubic-bezier(0,0,0.58,1)} 45.283019% {opacity: 1;animation-timing-function: cubic-bezier(0,0,0.58,1)} 47.169811% {opacity: 0;animation-timing-function: cubic-bezier(0,0,0.58,1)} 96.226415% {opacity: 0;animation-timing-function: cubic-bezier(0,0,0.58,1)} 100% {opacity: 0}} #eBpIsd5GR7A38_to {animation: eBpIsd5GR7A38_to__to 5300ms linear infinite normal forwards}@keyframes eBpIsd5GR7A38_to__to { 0% {transform: translate(72.0355px,110.365001px)} 15.09434% {transform: translate(72.0355px,110.365001px);animation-timing-function: cubic-bezier(0,0,0.58,1)} 16.981132% {transform: translate(72.0355px,108.365002px);animation-timing-function: cubic-bezier(0,0,0.58,1)} 41.509434% {transform: translate(72.0355px,108.365002px);animation-timing-function: cubic-bezier(0,0,0.58,1)} 43.396226% {transform: translate(72.0355px,107.365001px)} 100% {transform: translate(72.0355px,107.365001px)}} #eBpIsd5GR7A38 {animation: eBpIsd5GR7A38_c_o 5300ms linear infinite normal forwards}@keyframes eBpIsd5GR7A38_c_o { 0% {opacity: 0} 15.09434% {opacity: 0;animation-timing-function: cubic-bezier(0,0,0.58,1)} 16.981132% {opacity: 1;animation-timing-function: cubic-bezier(0,0,0.58,1)} 41.509434% {opacity: 1;animation-timing-function: cubic-bezier(0,0,0.58,1)} 43.396226% {opacity: 0;animation-timing-function: cubic-bezier(0,0,0.58,1)} 96.226415% {opacity: 0;animation-timing-function: cubic-bezier(0,0,0.58,1)} 100% {opacity: 0}} #eBpIsd5GR7A42_to {animation: eBpIsd5GR7A42_to__to 5300ms linear infinite normal forwards}@keyframes eBpIsd5GR7A42_to__to { 0% {transform: translate(72.011501px,134.002997px)} 18.867925% {transform: translate(72.011501px,134.002997px);animation-timing-function: cubic-bezier(0,0,0.58,1)} 20.754717% {transform: translate(72.011501px,131.999997px);animation-timing-function: cubic-bezier(0,0,0.58,1)} 37.735849% {transform: translate(72.011501px,131.999997px);animation-timing-function: cubic-bezier(0,0,0.58,1)} 39.622642% {transform: translate(72.011501px,130.002997px)} 100% {transform: translate(72.011501px,130.002997px)}} #eBpIsd5GR7A42 {animation: eBpIsd5GR7A42_c_o 5300ms linear infinite normal forwards}@keyframes eBpIsd5GR7A42_c_o { 0% {opacity: 0} 18.867925% {opacity: 0;animation-timing-function: cubic-bezier(0,0,0.58,1)} 20.754717% {opacity: 1;animation-timing-function: cubic-bezier(0,0,0.58,1)} 37.735849% {opacity: 1;animation-timing-function: cubic-bezier(0,0,0.58,1)} 39.622642% {opacity: 0;animation-timing-function: cubic-bezier(0,0,0.58,1)} 96.226415% {opacity: 0;animation-timing-function: cubic-bezier(0,0,0.58,1)} 100% {opacity: 0}} #eBpIsd5GR7A50_to {animation: eBpIsd5GR7A50_to__to 5300ms linear infinite normal forwards}@keyframes eBpIsd5GR7A50_to__to { 0% {transform: translate(58.747647px,158.392px)} 22.641509% {transform: translate(58.747647px,158.392px);animation-timing-function: cubic-bezier(0,0,0.58,1)} 24.528302% {transform: translate(58.747647px,156.394005px);animation-timing-function: cubic-bezier(0,0,0.58,1)} 33.962264% {transform: translate(58.747647px,156.394005px);animation-timing-function: cubic-bezier(0,0,0.58,1)} 35.849057% {transform: translate(58.747647px,154.392px)} 100% {transform: translate(58.747647px,154.392px)}} #eBpIsd5GR7A50 {animation: eBpIsd5GR7A50_c_o 5300ms linear infinite normal forwards}@keyframes eBpIsd5GR7A50_c_o { 0% {opacity: 0} 22.641509% {opacity: 0;animation-timing-function: cubic-bezier(0,0,0.58,1)} 24.528302% {opacity: 1;animation-timing-function: cubic-bezier(0,0,0.58,1)} 33.962264% {opacity: 1;animation-timing-function: cubic-bezier(0,0,0.58,1)} 35.849057% {opacity: 0;animation-timing-function: cubic-bezier(0,0,0.58,1)} 96.226415% {opacity: 0;animation-timing-function: cubic-bezier(0,0,0.58,1)} 100% {opacity: 0}} #eBpIsd5GR7A55_to {animation: eBpIsd5GR7A55_to__to 5300ms linear infinite normal forwards}@keyframes eBpIsd5GR7A55_to__to { 0% {transform: translate(47.7035px,30.222px)} 56.603774% {transform: translate(47.7035px,30.222px);animation-timing-function: cubic-bezier(0,0,0.58,1)} 58.490566% {transform: translate(47.7035px,28.222px)} 100% {transform: translate(47.7035px,28.222px)}} #eBpIsd5GR7A55 {animation: eBpIsd5GR7A55_c_o 5300ms linear infinite normal forwards}@keyframes eBpIsd5GR7A55_c_o { 0% {opacity: 0} 56.603774% {opacity: 0;animation-timing-function: cubic-bezier(0,0,0.58,1)} 58.490566% {opacity: 1;animation-timing-function: cubic-bezier(0,0,0.58,1)} 96.226415% {opacity: 1;animation-timing-function: cubic-bezier(0,0,0.58,1)} 100% {opacity: 0}} #eBpIsd5GR7A56_to {animation: eBpIsd5GR7A56_to__to 5300ms linear infinite normal forwards}@keyframes eBpIsd5GR7A56_to__to { 0% {transform: translate(75.514005px,62.109685px)} 60.377358% {transform: translate(75.514005px,62.109685px);animation-timing-function: cubic-bezier(0,0,0.58,1)} 62.264151% {transform: translate(75.514005px,60.109685px)} 100% {transform: translate(75.514005px,60.109685px)}} #eBpIsd5GR7A56 {animation: eBpIsd5GR7A56_c_o 5300ms linear infinite normal forwards}@keyframes eBpIsd5GR7A56_c_o { 0% {opacity: 0} 60.377358% {opacity: 0;animation-timing-function: cubic-bezier(0,0,0.58,1)} 62.264151% {opacity: 1;animation-timing-function: cubic-bezier(0,0,0.58,1)} 96.226415% {opacity: 1;animation-timing-function: cubic-bezier(0,0,0.58,1)} 100% {opacity: 0}} #eBpIsd5GR7A60_to {animation: eBpIsd5GR7A60_to__to 5300ms linear infinite normal forwards}@keyframes eBpIsd5GR7A60_to__to { 0% {transform: translate(58.505655px,86.093185px)} 64.150943% {transform: translate(58.505655px,86.093185px);animation-timing-function: cubic-bezier(0,0,0.58,1)} 66.037736% {transform: translate(58.505655px,84.093185px)} 100% {transform: translate(58.505655px,84.093185px)}} #eBpIsd5GR7A60 {animation: eBpIsd5GR7A60_c_o 5300ms linear infinite normal forwards}@keyframes eBpIsd5GR7A60_c_o { 0% {opacity: 0} 64.150943% {opacity: 0;animation-timing-function: cubic-bezier(0,0,0.58,1)} 66.037736% {opacity: 1;animation-timing-function: cubic-bezier(0,0,0.58,1)} 96.226415% {opacity: 1;animation-timing-function: cubic-bezier(0,0,0.58,1)} 100% {opacity: 0}} #eBpIsd5GR7A64_to {animation: eBpIsd5GR7A64_to__to 5300ms linear infinite normal forwards}@keyframes eBpIsd5GR7A64_to__to { 0% {transform: translate(59.344206px,110.093185px)} 67.924528% {transform: translate(59.344206px,110.093185px);animation-timing-function: cubic-bezier(0,0,0.58,1)} 69.811321% {transform: translate(59.344206px,108.093185px)} 100% {transform: translate(59.344206px,108.093185px)}} #eBpIsd5GR7A64 {animation: eBpIsd5GR7A64_c_o 5300ms linear infinite normal forwards}@keyframes eBpIsd5GR7A64_c_o { 0% {opacity: 0} 67.924528% {opacity: 0;animation-timing-function: cubic-bezier(0,0,0.58,1)} 69.811321% {opacity: 1;animation-timing-function: cubic-bezier(0,0,0.58,1)} 96.226415% {opacity: 1;animation-timing-function: cubic-bezier(0,0,0.58,1)} 100% {opacity: 0}} #eBpIsd5GR7A68_to {animation: eBpIsd5GR7A68_to__to 5300ms linear infinite normal forwards}@keyframes eBpIsd5GR7A68_to__to { 0% {transform: translate(44.559307px,134.137185px)} 69.811321% {transform: translate(44.559307px,134.137185px);animation-timing-function: cubic-bezier(0,0,0.58,1)} 71.698113% {transform: translate(44.559307px,132.137185px)} 100% {transform: translate(44.559307px,132.137185px)}} #eBpIsd5GR7A68 {animation: eBpIsd5GR7A68_c_o 5300ms linear infinite normal forwards}@keyframes eBpIsd5GR7A68_c_o { 0% {opacity: 0} 69.811321% {opacity: 0;animation-timing-function: cubic-bezier(0,0,0.58,1)} 71.698113% {opacity: 1;animation-timing-function: cubic-bezier(0,0,0.58,1)} 96.226415% {opacity: 1;animation-timing-function: cubic-bezier(0,0,0.58,1)} 100% {opacity: 0}} #eBpIsd5GR7A72_to {animation: eBpIsd5GR7A72_to__to 5300ms linear infinite normal forwards}@keyframes eBpIsd5GR7A72_to__to { 0% {transform: translate(56.760954px,158.076685px)} 73.584906% {transform: translate(56.760954px,158.076685px);animation-timing-function: cubic-bezier(0,0,0.58,1)} 75.471698% {transform: translate(56.760954px,156.076685px)} 100% {transform: translate(56.760954px,156.076685px)}} #eBpIsd5GR7A72 {animation: eBpIsd5GR7A72_c_o 5300ms linear infinite normal forwards}@keyframes eBpIsd5GR7A72_c_o { 0% {opacity: 0} 73.584906% {opacity: 0;animation-timing-function: cubic-bezier(0,0,0.58,1)} 75.471698% {opacity: 1;animation-timing-function: cubic-bezier(0,0,0.58,1)} 96.226415% {opacity: 1;animation-timing-function: cubic-bezier(0,0,0.58,1)} 100% {opacity: 0}} #eBpIsd5GR7A76_ts {animation: eBpIsd5GR7A76_ts__ts 5300ms linear infinite normal forwards}@keyframes eBpIsd5GR7A76_ts__ts { 0% {transform: translate(134px,26px) scale(0.8,0.8)} 73.584906% {transform: translate(134px,26px) scale(0.8,0.8);animation-timing-function: cubic-bezier(0,0,0.58,1)} 77.358491% {transform: translate(134px,26px) scale(1,1)} 100% {transform: translate(134px,26px) scale(1,1)}} #eBpIsd5GR7A76 {animation: eBpIsd5GR7A76_c_o 5300ms linear infinite normal forwards}@keyframes eBpIsd5GR7A76_c_o { 0% {opacity: 0} 73.584906% {opacity: 0;animation-timing-function: cubic-bezier(0,0,0.58,1)} 77.358491% {opacity: 1;animation-timing-function: cubic-bezier(0,0,0.58,1)} 96.226415% {opacity: 1;animation-timing-function: cubic-bezier(0,0,0.58,1)} 100% {opacity: 0}}
]]></style>
<defs><linearGradient id="eBpIsd5GR7A3-fill" x1="80" y1="0" x2="80" y2="184" spreadMethod="pad" gradientUnits="userSpaceOnUse" gradientTransform="translate(0 0)"><stop id="eBpIsd5GR7A3-fill-0" offset="0%" stop-color="#f9fafb"/><stop id="eBpIsd5GR7A3-fill-1" offset="100%" stop-color="rgba(249,250,251,0)"/></linearGradient><linearGradient id="eBpIsd5GR7A5-fill" x1="80" y1="0" x2="80" y2="184" spreadMethod="pad" gradientUnits="userSpaceOnUse" gradientTransform="translate(0 0)"><stop id="eBpIsd5GR7A5-fill-0" offset="0%" stop-color="#e5e7eb"/><stop id="eBpIsd5GR7A5-fill-1" offset="100%" stop-color="rgba(229,231,235,0.2)"/></linearGradient></defs><g transform="translate(0-.5)"><path d="M0,8C0,3.58172,3.58172,0,8,0h144c4.418,0,8,3.58172,8,8v176h-160L0,8Z" fill="url(#eBpIsd5GR7A3-fill)"/></g><g mask="url(#eBpIsd5GR7A6)"><path d="M-1,8c0-4.97056,4.02944-9,9-9h144c4.971,0,9,4.02944,9,9h-2c0-3.86599-3.134-7-7-7L8,1C4.13401,1,1,4.13401,1,8h-2ZM160,184h-160h160ZM-1,184L-1,8c0-4.97056,4.02944-9,9-9v2C4.13401,1,1,4.13401,1,8v176h-2ZM152,-1c4.971,0,9,4.02944,9,9v176h-2v-176c0-3.86599-3.134-7-7-7v-2Z" fill="url(#eBpIsd5GR7A5-fill)"/><mask id="eBpIsd5GR7A6" mask-type="luminance" x="-150%" y="-150%" height="400%" width="400%"><path d="M0,8C0,3.58172,3.58172,0,8,0h144c4.418,0,8,3.58172,8,8v176h-160L0,8Z" fill="#fff"/></mask></g><g id="eBpIsd5GR7A8_to" transform="translate(46.674998,30.174)"><path id="eBpIsd5GR7A8" d="M15.874,30.166l1.414-1.372c.742,1.05,1.82,1.638,2.926,1.638c1.05,0,1.82-.462,1.82-1.316c0-.924-.952-1.05-2.464-1.386-1.498-.35-3.122-.826-3.122-2.814c0-1.918,1.652-3.122,3.738-3.122c1.736,0,3.094.77,3.794,1.778l-1.358,1.33c-.588-.826-1.372-1.386-2.492-1.386-.98,0-1.652.476-1.652,1.204c0,.784.728.938,2.044,1.232c1.596.35,3.556.756,3.556,2.954c0,2.03-1.792,3.248-3.934,3.248-1.694,0-3.458-.77-4.27-1.988Zm15.6758-5.53v7.364h-1.96v-.756c-.406.476-1.05.91-1.988.91-1.526,0-2.506-1.05-2.506-2.646v-4.872h1.96v4.438c0,.812.364,1.344,1.176,1.344.686,0,1.358-.504,1.358-1.456v-4.326h1.96Zm3.5874,3.108v4.256h-1.96v-7.364h1.96v.756c.392-.476,1.05-.896,2.002-.896.896,0,1.582.378,1.988,1.008.448-.462,1.148-1.008,2.282-1.008c1.512,0,2.492,1.05,2.492,2.646v4.858h-1.96v-4.298c0-.826-.308-1.414-1.12-1.414-.644,0-1.302.49-1.302,1.456v4.256h-1.96v-4.298c0-.826-.308-1.414-1.12-1.414-.644,0-1.302.49-1.302,1.456Zm12.3047,0v4.256h-1.96v-7.364h1.96v.756c.392-.476,1.05-.896,2.002-.896.896,0,1.582.378,1.988,1.008.448-.462,1.148-1.008,2.282-1.008c1.512,0,2.492,1.05,2.492,2.646v4.858h-1.96v-4.298c0-.826-.308-1.414-1.12-1.414-.644,0-1.302.49-1.302,1.456v4.256h-1.96v-4.298c0-.826-.308-1.414-1.12-1.414-.644,0-1.302.49-1.302,1.456Zm12.3467,4.382c-1.442,0-2.506-.868-2.506-2.17c0-1.47,1.176-2.086,2.66-2.352l1.834-.35v-.112c0-.63-.322-1.022-1.134-1.022-.728,0-1.106.322-1.274.98l-1.862-.35c.336-1.246,1.456-2.254,3.206-2.254c1.862,0,2.982.854,2.982,2.562v3.01c0,.392.168.518.602.462v1.47c-1.246.182-2.002-.07-2.324-.686-.476.518-1.218.812-2.184.812Zm1.988-2.744v-.756l-1.442.294c-.644.126-1.12.336-1.12.924c0,.504.378.798.966.798.826,0,1.596-.434,1.596-1.26Zm8.0212-4.76v1.918c-.224-.028-.392-.042-.63-.042-1.022,0-1.806.63-1.806,1.764v3.738h-1.96v-7.364h1.96v1.036c.322-.644,1.05-1.078,1.96-1.078.196,0,.336.014.476.028ZM74.564,32.42c-.476,1.302-1.148,2.142-2.772,2.142-.378,0-.518-.014-.77-.042v-1.582c.21.014.336.028.56.028.518,0,.798-.14,1.008-.672l.238-.588-2.646-7.07h2.03l1.666,4.844l1.624-4.844h1.974L74.564,32.42Z" transform="translate(-46.674998,-28.178)" opacity="0" fill="#1f2937"/></g><g id="eBpIsd5GR7A9_to" transform="translate(134,27)"><g id="eBpIsd5GR7A9_ts" transform="scale(1,1)"><g id="eBpIsd5GR7A9" transform="translate(-134,-26)" opacity="0"><rect id="eBpIsd5GR7A10" width="20" height="20" rx="4" ry="4" transform="translate(124 16)" fill="#ede9fe"/><g clip-path="url(#eBpIsd5GR7A16)"><g><path id="eBpIsd5GR7A13" d="M139,29.13c0,.09-.06.17-.15.21l-1.1.41-.41,1.11c-.04.08-.12.14-.21.14-.1,0-.18-.06-.21-.14l-.42-1.11-1.1-.41c-.09-.04-.15-.12-.15-.21c0-.1.06-.18.15-.21l1.1-.42.42-1.1c.03-.09.11-.15.21-.15.09,0,.17.06.21.15l.41,1.1l1.1.42c.09.03.15.11.15.21Z" fill="#8b5cf6"/><path id="eBpIsd5GR7A14" d="M139,22.88c0,.09-.06.17-.15.21l-1.1.41-.41,1.11c-.04.08-.12.14-.21.14-.1,0-.18-.06-.21-.14l-.42-1.11-1.1-.41c-.09-.04-.15-.12-.15-.21c0-.1.06-.18.15-.21l1.1-.42.42-1.1c.03-.09.11-.15.21-.15.09,0,.17.06.21.15l.41,1.1l1.1.42c.09.03.15.11.15.21Z" fill="#8b5cf6"/><path id="eBpIsd5GR7A15" d="M136.44,25.97c0,.12-.07.23-.18.29l-2.23,1.02-1.02,2.23c-.06.11-.17.18-.29.18s-.23-.07-.28-.18l-1.03-2.22-2.23-1.03c-.11-.05-.18-.16-.18-.29c0-.12.07-.23.18-.28l2.23-1.03l1.03-2.23c.05-.11.16-.18.28-.18s.24.07.29.18l1.03,2.23l2.22,1.03c.11.05.18.16.18.28Z" fill="#8b5cf6"/></g><clipPath id="eBpIsd5GR7A16"><rect width="10" height="10" rx="0" ry="0" transform="translate(129 21)" fill="#fff"/></clipPath></g></g></g></g><g id="eBpIsd5GR7A18_to" transform="translate(50.9725,62.003349)"><g id="eBpIsd5GR7A18" transform="translate(-50.9725,-59.999948)" opacity="0"><path d="M24.458,54.1666h-4.9583c-.3094,0-.6062.1229-.825.3417s-.3417.5156-.3417.825v9.3333c0,.3094.1229.6062.3417.825s.5156.3417.825.3417h7c.3094,0,.6061-.1229.8249-.3417s.3417-.5156.3417-.825v-7.2916L24.458,54.1666Z" fill="none" stroke="#6366f1" stroke-width="1.16667" stroke-linecap="round" stroke-linejoin="round"/><path d="M24.167,54.1666v3.5h3.5" fill="none" stroke="#6366f1" stroke-width="1.16667" stroke-linecap="round" stroke-linejoin="round"/><path d="M20.667,60.5834h1.1667" fill="none" stroke="#6366f1" stroke-width="1.16667" stroke-linecap="round" stroke-linejoin="round"/><path d="M20.667,62.9166h1.1667" fill="none" stroke="#6366f1" stroke-width="1.16667" stroke-linecap="round" stroke-linejoin="round"/><path d="M24.167,60.5834h1.1667" fill="none" stroke="#6366f1" stroke-width="1.16667" stroke-linecap="round" stroke-linejoin="round"/><path d="M24.167,62.9166h1.1667" fill="none" stroke="#6366f1" stroke-width="1.16667" stroke-linecap="round" stroke-linejoin="round"/><path d="M38.655,60.051c0-2.409,1.518-4.07,3.586-4.07s3.575,1.661,3.575,4.07-1.507,4.07-3.575,4.07-3.586-1.661-3.586-4.07Zm6.116,0c0-1.87-1.045-3.135-2.53-3.135s-2.53,1.265-2.53,3.135s1.045,3.135,2.53,3.135s2.53-1.265,2.53-3.135ZM49.5075,64h-.979l-2.156-5.753h1.045l1.617,4.543l1.595-4.543h1.034L49.5075,64Zm5.2708.121c-1.595,0-2.695-1.221-2.695-2.992c0-1.716,1.089-2.992,2.651-2.992c1.606,0,2.453,1.221,2.453,2.816v.33h-4.158c.055,1.21.748,1.98,1.749,1.98.77,0,1.32-.418,1.496-1.1l.869.308c-.352,1.023-1.221,1.65-2.365,1.65Zm-.055-5.137c-.836,0-1.463.561-1.639,1.54h3.102c-.022-.814-.462-1.54-1.463-1.54Zm6.6774-.759v1.001c-.165-.033-.297-.044-.484-.044-.836,0-1.507.66-1.507,1.672v3.146h-.99v-5.753h.99v.979c.253-.583.814-1.023,1.595-1.023.154,0,.297.011.396.022ZM65.0085,64h-.979l-2.156-5.753h1.045l1.617,4.543l1.595-4.543h1.034L65.0085,64Zm3.0782-6.754v-1.144h1.078v1.144h-1.078Zm1.034,1.001v5.753h-.99v-5.753h.99Zm3.9515,5.874c-1.595,0-2.695-1.221-2.695-2.992c0-1.716,1.089-2.992,2.651-2.992c1.606,0,2.453,1.221,2.453,2.816v.33h-4.158c.055,1.21.748,1.98,1.749,1.98.77,0,1.32-.418,1.496-1.1l.869.308c-.352,1.023-1.221,1.65-2.365,1.65Zm-.055-5.137c-.836,0-1.463.561-1.639,1.54h3.102c-.022-.814-.462-1.54-1.463-1.54Zm6.3818-.737h.836l1.188,4.29l1.199-4.29h.99L81.863,64h-.869l-1.199-4.268L78.596,64h-.869l-1.749-5.753h1.023l1.21,4.279l1.188-4.279Z" fill="#6b7280"/></g></g><g id="eBpIsd5GR7A26_to" transform="translate(51.63395,86.109697)"><g id="eBpIsd5GR7A26" transform="translate(-51.633949,-84.1063)" opacity="0"><path d="M27.0833,79.3334h-8.1666c-.6444,0-1.1667.5223-1.1667,1.1666v8.1667c0,.6443.5223,1.1667,1.1667,1.1667h8.1666c.6444,0,1.1667-.5224,1.1667-1.1667v-8.1667c0-.6443-.5223-1.1666-1.1667-1.1666Z" fill="none" stroke="#6366f1" stroke-width="1.16667" stroke-linecap="round" stroke-linejoin="round"/><path d="M25.333,78.1666v2.3334" fill="none" stroke="#6366f1" stroke-width="1.16667" stroke-linecap="round" stroke-linejoin="round"/><path d="M20.667,78.1666v2.3334" fill="none" stroke="#6366f1" stroke-width="1.16667" stroke-linecap="round" stroke-linejoin="round"/><path d="M17.75,82.8334h10.5" fill="none" stroke="#6366f1" stroke-width="1.16667" stroke-linecap="round" stroke-linejoin="round"/><path d="M20.667,85.1666h.0058" fill="none" stroke="#6366f1" stroke-width="1.16667" stroke-linecap="round" stroke-linejoin="round"/><path d="M23,85.1666h.0058" fill="none" stroke="#6366f1" stroke-width="1.16667" stroke-linecap="round" stroke-linejoin="round"/><path d="M25.333,85.1666h.0058" fill="none" stroke="#6366f1" stroke-width="1.16667" stroke-linecap="round" stroke-linejoin="round"/><path d="M20.667,87.5h.0058" fill="none" stroke="#6366f1" stroke-width="1.16667" stroke-linecap="round" stroke-linejoin="round"/><path d="M23,87.5h.0058" fill="none" stroke="#6366f1" stroke-width="1.16667" stroke-linecap="round" stroke-linejoin="round"/><path d="M25.333,87.5h.0058" fill="none" stroke="#6366f1" stroke-width="1.16667" stroke-linecap="round" stroke-linejoin="round"/><path d="M40.0075,80.102v3.993l3.674-3.993h1.265l-3.201,3.443L45.1005,88h-1.243l-2.816-3.696-1.034,1.111v2.585h-1.056v-7.898h1.056Zm7.9773,8.019c-1.595,0-2.695-1.221-2.695-2.992c0-1.716,1.089-2.992,2.651-2.992c1.606,0,2.453,1.221,2.453,2.816v.33h-4.158c.055,1.21.748,1.98,1.749,1.98.77,0,1.32-.418,1.496-1.1l.869.308c-.352,1.023-1.221,1.65-2.365,1.65Zm-.055-5.137c-.836,0-1.463.561-1.639,1.54h3.102c-.022-.814-.462-1.54-1.463-1.54Zm5.7445,5.643c-.33.869-.781,1.419-1.782,1.419-.242,0-.363-.011-.539-.044v-.858c.187.044.308.055.473.055.429,0,.66-.154.891-.726l.275-.682-2.134-5.544h1.045l1.617,4.4l1.595-4.4h1.034l-2.475,6.38Zm7.8735-.506c-1.595,0-2.508-1.364-2.508-2.992c0-1.639.913-2.992,2.508-2.992.803,0,1.441.385,1.782.946v-2.981h.99v7.898h-.99v-.836c-.341.572-.979.957-1.782.957Zm1.804-3.19c0-1.342-.814-1.925-1.628-1.925-1.078,0-1.683.88-1.683,2.123c0,1.232.605,2.123,1.683,2.123.814,0,1.628-.594,1.628-1.914v-.407Zm4.0455,3.168c-1.045,0-1.892-.616-1.892-1.65c0-1.144.891-1.617,2.178-1.881l1.397-.286v-.242c0-.66-.363-1.034-1.133-1.034-.726,0-1.155.341-1.331.979l-.935-.242c.275-.935,1.122-1.606,2.299-1.606c1.287,0,2.079.627,2.079,1.859v2.805c0,.374.231.495.616.407v.792c-.88.11-1.386-.099-1.507-.649-.352.451-.99.748-1.771.748Zm1.683-2.057v-.99l-1.122.242c-.88.176-1.474.418-1.474,1.111c0,.561.407.891,1.034.891.847,0,1.562-.517,1.562-1.254Zm2.8201.583v-3.531h-.891v-.847h.891v-1.683h.979v1.683h1.309v.847h-1.309v3.377c0,.605.297.715.803.715.231,0,.396-.011.627-.066v.847c-.253.055-.539.088-.869.088-.979,0-1.54-.33-1.54-1.43Zm5.851,1.496c-1.595,0-2.695-1.221-2.695-2.992c0-1.716,1.089-2.992,2.651-2.992c1.606,0,2.453,1.221,2.453,2.816v.33h-4.158c.055,1.21.748,1.98,1.749,1.98.77,0,1.32-.418,1.496-1.1l.869.308c-.352,1.023-1.221,1.65-2.365,1.65Zm-.055-5.137c-.836,0-1.463.561-1.639,1.54h3.102c-.022-.814-.462-1.54-1.463-1.54Zm3.0585,3.795l.77-.561c.308.671,1.012,1.078,1.76,1.078.671,0,1.265-.286,1.265-.913s-.55-.715-1.496-.913c-.946-.209-1.936-.418-1.936-1.595c0-1.023.891-1.738,2.112-1.738c1.034,0,1.881.506,2.222,1.188l-.704.561c-.297-.572-.836-.935-1.562-.935-.66,0-1.1.33-1.1.847c0,.539.506.638,1.309.814.99.231,2.123.429,2.123,1.683c0,1.1-1.001,1.826-2.233,1.826-1.045,0-2.09-.451-2.53-1.342Z" fill="#6b7280"/></g></g><g id="eBpIsd5GR7A38_to" transform="translate(72.0355,110.365001)"><g id="eBpIsd5GR7A38" transform="translate(-72.035499,-108.365001)" opacity="0"><path d="M21.25,107.417l1.75,1.75l5.8333-5.834" fill="none" stroke="#6366f1" stroke-width="1.16667" stroke-linecap="round" stroke-linejoin="round"/><path d="M28.25,108v4.083c0,.31-.1229.606-.3417.825s-.5155.342-.825.342h-8.1666c-.3095,0-.6062-.123-.825-.342s-.3417-.515-.3417-.825v-8.166c0-.31.1229-.606.3417-.825s.5155-.342.825-.342h6.4166" fill="none" stroke="#6366f1" stroke-width="1.16667" stroke-linecap="round" stroke-linejoin="round"/><path d="M40.2048,108.689v3.311h-1.056v-7.898h3.014c1.672,0,2.739.781,2.739,2.288c0,1.265-.77,2.035-2.024,2.244L45.0668,112h-1.21l-2.123-3.311h-1.529Zm0-.913h1.903c1.122,0,1.749-.495,1.749-1.386s-.627-1.375-1.749-1.375h-1.903v2.761ZM47.3266,112h-1.045v-7.898h5.104v.924h-4.059v2.541h3.432v.924h-3.432v3.509Zm6.4026-3.311v3.311h-1.056v-7.898h3.014c1.672,0,2.739.781,2.739,2.288c0,1.485-1.067,2.299-2.739,2.299h-1.958Zm0-.913h1.903c1.122,0,1.749-.495,1.749-1.386s-.627-1.375-1.749-1.375h-1.903v2.761Zm11.0441-1.551v1.001c-.165-.033-.297-.044-.484-.044-.836,0-1.507.66-1.507,1.672v3.146h-.99v-5.753h.99v.979c.253-.583.814-1.023,1.595-1.023.154,0,.297.011.396.022Zm3.1529,5.896c-1.595,0-2.695-1.221-2.695-2.992c0-1.716,1.089-2.992,2.651-2.992c1.606,0,2.453,1.221,2.453,2.816v.33h-4.158c.055,1.21.748,1.98,1.749,1.98.77,0,1.32-.418,1.496-1.1l.869.308c-.352,1.023-1.221,1.65-2.365,1.65Zm-.055-5.137c-.836,0-1.463.561-1.639,1.54h3.102c-.022-.814-.462-1.54-1.463-1.54Zm5.8085,5.137c-1.595,0-2.508-1.364-2.508-2.992c0-1.639.913-2.992,2.508-2.992.803,0,1.441.385,1.782.946v-.836h.99v7.733h-.99v-2.816c-.341.572-.979.957-1.782.957Zm1.804-3.19c0-1.342-.814-1.925-1.628-1.925-1.078,0-1.683.88-1.683,2.123c0,1.232.605,2.123,1.683,2.123.814,0,1.628-.594,1.628-1.914v-.407Zm7.1802-2.684v5.753h-.99v-.792c-.33.484-.891.913-1.705.913-1.232,0-1.925-.847-1.925-2.068v-3.806h.99v3.597c0,.814.352,1.364,1.199,1.364.715,0,1.441-.539,1.441-1.496v-3.465h.99Zm1.6-1.001v-1.144h1.078v1.144h-1.078Zm1.034,1.001v5.753h-.99v-5.753h.99Zm4.6336-.022v1.001c-.165-.033-.297-.044-.484-.044-.836,0-1.507.66-1.507,1.672v3.146h-.99v-5.753h.99v.979c.253-.583.814-1.023,1.595-1.023.154,0,.297.011.396.022Zm3.1529,5.896c-1.595,0-2.695-1.221-2.695-2.992c0-1.716,1.089-2.992,2.651-2.992c1.606,0,2.453,1.221,2.453,2.816v.33h-4.158c.055,1.21.748,1.98,1.749,1.98.77,0,1.32-.418,1.496-1.1l.869.308c-.352,1.023-1.221,1.65-2.365,1.65Zm-.055-5.137c-.836,0-1.463.561-1.639,1.54h3.102c-.022-.814-.462-1.54-1.463-1.54Zm4.6865,1.573v3.443h-.99v-5.753h.99v.781c.308-.473.858-.891,1.661-.891.7701,0,1.3091.385,1.5951.979.319-.473.935-.979,1.837-.979c1.188,0,1.903.847,1.903,2.068v3.795h-.99v-3.531c0-.803-.33-1.408-1.144-1.408-.66,0-1.364.561-1.364,1.496v3.443h-.99v-3.531c0-.803-.3301-1.408-1.1441-1.408-.66,0-1.364.561-1.364,1.496Zm10.8911,3.564c-1.595,0-2.695-1.221-2.695-2.992c0-1.716,1.089-2.992,2.651-2.992c1.606,0,2.453,1.221,2.453,2.816v.33h-4.158c.055,1.21.748,1.98,1.749,1.98.77,0,1.32-.418,1.496-1.1l.869.308c-.352,1.023-1.221,1.65-2.365,1.65Zm-.055-5.137c-.836,0-1.463.561-1.639,1.54h3.102c-.022-.814-.462-1.54-1.463-1.54ZM112.248,112v-5.753h.99v.781c.33-.473.902-.891,1.716-.891c1.221,0,1.914.847,1.914,2.068v3.795h-.99v-3.531c0-.803-.341-1.408-1.199-1.408-.715,0-1.441.55-1.441,1.507v3.432h-.99Zm6.363-1.375v-3.531h-.891v-.847h.891v-1.683h.979v1.683h1.309v.847h-1.309v3.377c0,.605.297.715.803.715.231,0,.396-.011.627-.066v.847c-.253.055-.539.088-.869.088-.979,0-1.54-.33-1.54-1.43Zm2.947.154l.77-.561c.308.671,1.012,1.078,1.76,1.078.671,0,1.265-.286,1.265-.913s-.55-.715-1.496-.913c-.946-.209-1.936-.418-1.936-1.595c0-1.023.891-1.738,2.112-1.738c1.034,0,1.881.506,2.222,1.188l-.704.561c-.297-.572-.836-.935-1.562-.935-.66,0-1.1.33-1.1.847c0,.539.506.638,1.309.814.99.231,2.123.429,2.123,1.683c0,1.1-1.001,1.826-2.233,1.826-1.045,0-2.09-.451-2.53-1.342Z" fill="#6b7280"/></g></g><g id="eBpIsd5GR7A42_to" transform="translate(72.011501,134.002997)"><g id="eBpIsd5GR7A42" transform="translate(-72.011501,-131.999997)" opacity="0"><path d="M24.7503,126.167h-3.5c-.3221,0-.5833.261-.5833.583v1.167c0,.322.2612.583.5833.583h3.5c.3222,0,.5834-.261.5834-.583v-1.167c0-.322-.2612-.583-.5834-.583Z" fill="none" stroke="#6366f1" stroke-width="1.16667" stroke-linecap="round" stroke-linejoin="round"/><path d="M25.333,127.333h1.1667c.3094,0,.6061.123.8249.342s.3417.516.3417.825v8.167c0,.309-.1229.606-.3417.825-.2188.218-.5155.341-.8249.341h-7c-.3094,0-.6062-.123-.825-.341-.2188-.219-.3417-.516-.3417-.825v-8.167c0-.309.1229-.606.3417-.825s.5156-.342.825-.342h1.1666" fill="none" stroke="#6366f1" stroke-width="1.16667" stroke-linecap="round" stroke-linejoin="round"/><path d="M23,131.417h2.3333" fill="none" stroke="#6366f1" stroke-width="1.16667" stroke-linecap="round" stroke-linejoin="round"/><path d="M23,134.333h2.3333" fill="none" stroke="#6366f1" stroke-width="1.16667" stroke-linecap="round" stroke-linejoin="round"/><path d="M20.667,131.417h.0058" fill="none" stroke="#6366f1" stroke-width="1.16667" stroke-linecap="round" stroke-linejoin="round"/><path d="M20.667,134.333h.0058" fill="none" stroke="#6366f1" stroke-width="1.16667" stroke-linecap="round" stroke-linejoin="round"/><path d="M38.9335,128.102h5.159v.924h-4.114v2.431h3.487v.924h-3.487v2.695h4.114v.924h-5.159v-7.898ZM47.6696,136h-.979l-2.156-5.753h1.045l1.617,4.543l1.595-4.543h1.034L47.6696,136Zm4.4021.099c-1.045,0-1.892-.616-1.892-1.65c0-1.144.891-1.617,2.178-1.881l1.397-.286v-.242c0-.66-.363-1.034-1.133-1.034-.726,0-1.155.341-1.331.979l-.935-.242c.275-.935,1.122-1.606,2.299-1.606c1.287,0,2.079.627,2.079,1.859v2.805c0,.374.231.495.616.407v.792c-.88.11-1.386-.099-1.507-.649-.352.451-.99.748-1.771.748Zm1.683-2.057v-.99l-1.122.242c-.88.176-1.474.418-1.474,1.111c0,.561.407.891,1.034.891.847,0,1.562-.517,1.562-1.254Zm3.656-5.94v7.898h-.99v-7.898h.99Zm6.2176,2.145v5.753h-.99v-.792c-.33.484-.891.913-1.705.913-1.232,0-1.925-.847-1.925-2.068v-3.806h.99v3.597c0,.814.352,1.364,1.199,1.364.715,0,1.441-.539,1.441-1.496v-3.465h.99Zm3.085,5.852c-1.045,0-1.892-.616-1.892-1.65c0-1.144.891-1.617,2.178-1.881l1.397-.286v-.242c0-.66-.363-1.034-1.133-1.034-.726,0-1.155.341-1.331.979l-.935-.242c.275-.935,1.122-1.606,2.299-1.606c1.287,0,2.079.627,2.079,1.859v2.805c0,.374.231.495.616.407v.792c-.88.11-1.386-.099-1.507-.649-.352.451-.99.748-1.771.748Zm1.683-2.057v-.99l-1.122.242c-.88.176-1.474.418-1.474,1.111c0,.561.407.891,1.034.891.847,0,1.562-.517,1.562-1.254Zm2.82.583v-3.531h-.891v-.847h.891v-1.683h.979v1.683h1.309v.847h-1.309v3.377c0,.605.297.715.803.715.231,0,.396-.011.627-.066v.847c-.253.055-.539.088-.869.088-.979,0-1.54-.33-1.54-1.43Zm3.5403-5.379v-1.144h1.078v1.144h-1.078Zm1.034,1.001v5.753h-.99v-5.753h.99Zm6.6026,2.882c0,1.782-1.1,2.992-2.673,2.992s-2.673-1.21-2.673-2.992s1.1-2.992,2.673-2.992s2.673,1.21,2.673,2.992Zm-4.345,0c0,1.309.66,2.145,1.672,2.145s1.672-.836,1.672-2.145c0-1.32-.66-2.156-1.672-2.156s-1.672.836-1.672,2.156ZM83.6521,136v-5.753h.99v.781c.33-.473.902-.891,1.716-.891c1.221,0,1.914.847,1.914,2.068v3.795h-.99v-3.531c0-.803-.341-1.408-1.199-1.408-.715,0-1.441.55-1.441,1.507v3.432h-.99Zm9.1233-2.871c0,1.309.704,2.123,1.727,2.123.792,0,1.265-.506,1.43-1.221l.88.407c-.275.957-1.111,1.683-2.31,1.683-1.606,0-2.717-1.221-2.717-2.992c0-1.782,1.111-2.992,2.717-2.992c1.199,0,2.013.693,2.288,1.65l-.858.429c-.165-.704-.638-1.221-1.43-1.221-1.023,0-1.727.814-1.727,2.134Zm8.1016-2.904v1.001c-.165-.033-.297-.044-.484-.044-.8357,0-1.5067.66-1.5067,1.672v3.146h-.99v-5.753h.99v.979c.253-.583.814-1.023,1.5947-1.023.154,0,.297.011.396.022Zm1.047-.979v-1.144h1.078v1.144h-1.078Zm1.034,1.001v5.753h-.99v-5.753h.99Zm1.806,4.378v-3.531h-.891v-.847h.891v-1.683h.979v1.683h1.309v.847h-1.309v3.377c0,.605.297.715.803.715.231,0,.396-.011.627-.066v.847c-.253.055-.539.088-.869.088-.979,0-1.54-.33-1.54-1.43Zm5.851,1.496c-1.595,0-2.695-1.221-2.695-2.992c0-1.716,1.089-2.992,2.651-2.992c1.606,0,2.453,1.221,2.453,2.816v.33h-4.158c.055,1.21.748,1.98,1.749,1.98.77,0,1.32-.418,1.496-1.1l.869.308c-.352,1.023-1.221,1.65-2.365,1.65Zm-.055-5.137c-.836,0-1.463.561-1.639,1.54h3.102c-.022-.814-.462-1.54-1.463-1.54Zm6.678-.759v1.001c-.165-.033-.297-.044-.484-.044-.836,0-1.507.66-1.507,1.672v3.146h-.99v-5.753h.99v.979c.253-.583.814-1.023,1.595-1.023.154,0,.297.011.396.022Zm1.046-.979v-1.144h1.078v1.144h-1.078Zm1.034,1.001v5.753h-.99v-5.753h.99Zm3.094,5.852c-1.045,0-1.892-.616-1.892-1.65c0-1.144.891-1.617,2.178-1.881l1.397-.286v-.242c0-.66-.363-1.034-1.133-1.034-.726,0-1.155.341-1.331.979l-.935-.242c.275-.935,1.122-1.606,2.299-1.606c1.287,0,2.079.627,2.079,1.859v2.805c0,.374.231.495.616.407v.792c-.88.11-1.386-.099-1.507-.649-.352.451-.99.748-1.771.748Zm1.683-2.057v-.99l-1.122.242c-.88.176-1.474.418-1.474,1.111c0,.561.407.891,1.034.891.847,0,1.562-.517,1.562-1.254Z" fill="#6b7280"/></g></g><g id="eBpIsd5GR7A50_to" transform="translate(58.747647,158.392)"><g id="eBpIsd5GR7A50" transform="translate(-58.747646,-156.394004)" opacity="0"><path d="M28.6759,159.5l-4.6667-8.167c-.1017-.179-.2493-.329-.4276-.432-.1783-.104-.381-.159-.5874-.159-.2063,0-.409.055-.5873.159-.1783.103-.3259.253-.4277.432L17.3126,159.5c-.1029.178-.1568.38-.1563.586.0004.206.0552.408.1589.585.1036.178.2524.325.4312.427.1788.101.3813.154.587.152h9.3333c.2047,0,.4058-.054.583-.157.1772-.102.3243-.249.4265-.427.1023-.177.1561-.378.156-.583s-.0539-.406-.1563-.583Z" fill="none" stroke="#6366f1" stroke-width="1.16667" stroke-linecap="round" stroke-linejoin="round"/><path d="M23,154.25v2.333" fill="none" stroke="#6366f1" stroke-width="1.16667" stroke-linecap="round" stroke-linejoin="round"/><path d="M23,158.917h.0058" fill="none" stroke="#6366f1" stroke-width="1.16667" stroke-linecap="round" stroke-linejoin="round"/><path d="M40.1867,156.689v3.311h-1.056v-7.898h3.014c1.672,0,2.739.781,2.739,2.288c0,1.265-.77,2.035-2.024,2.244L45.0487,160h-1.21l-2.123-3.311h-1.529Zm0-.913h1.903c1.122,0,1.749-.495,1.749-1.386s-.627-1.375-1.749-1.375h-1.903v2.761Zm5.9351-2.53v-1.144h1.078v1.144h-1.078Zm1.034,1.001v5.753h-.99v-5.753h.99Zm1.0146,4.532l.77-.561c.308.671,1.012,1.078,1.76,1.078.671,0,1.265-.286,1.265-.913s-.55-.715-1.496-.913c-.946-.209-1.936-.418-1.936-1.595c0-1.023.891-1.738,2.112-1.738c1.034,0,1.881.506,2.222,1.188l-.704.561c-.297-.572-.836-.935-1.562-.935-.66,0-1.1.33-1.1.847c0,.539.506.638,1.309.814.99.231,2.123.429,2.123,1.683c0,1.1-1.001,1.826-2.233,1.826-1.045,0-2.09-.451-2.53-1.342Zm6.9776-6.677v4.829l2.552-2.684h1.232l-2.244,2.266L59.119,160h-1.155l-1.98-2.772-.836.847v1.925h-.99v-7.898h.99Zm8.6473,7.997c-1.045,0-1.892-.616-1.892-1.65c0-1.144.891-1.617,2.178-1.881l1.397-.286v-.242c0-.66-.363-1.034-1.133-1.034-.726,0-1.155.341-1.331.979l-.935-.242c.275-.935,1.122-1.606,2.299-1.606c1.287,0,2.079.627,2.079,1.859v2.805c0,.374.231.495.616.407v.792c-.88.11-1.386-.099-1.507-.649-.352.451-.99.748-1.771.748Zm1.683-2.057v-.99l-1.122.242c-.88.176-1.474.418-1.474,1.111c0,.561.407.891,1.034.891.847,0,1.562-.517,1.562-1.254ZM68.1443,160v-5.753h.99v.781c.33-.473.902-.891,1.716-.891c1.221,0,1.914.847,1.914,2.068v3.795h-.99v-3.531c0-.803-.341-1.408-1.199-1.408-.715,0-1.441.55-1.441,1.507v3.432h-.99Zm7.65.099c-1.045,0-1.892-.616-1.892-1.65c0-1.144.891-1.617,2.178-1.881l1.397-.286v-.242c0-.66-.363-1.034-1.133-1.034-.726,0-1.155.341-1.331.979l-.935-.242c.275-.935,1.122-1.606,2.299-1.606c1.287,0,2.079.627,2.079,1.859v2.805c0,.374.231.495.616.407v.792c-.88.11-1.386-.099-1.507-.649-.352.451-.99.748-1.771.748Zm1.683-2.057v-.99l-1.122.242c-.88.176-1.474.418-1.474,1.111c0,.561.407.891,1.034.891.847,0,1.562-.517,1.562-1.254Zm3.6561-5.94v7.898h-.99v-7.898h.99Zm3.7865,8.525c-.33.869-.781,1.419-1.782,1.419-.242,0-.363-.011-.539-.044v-.858c.187.044.308.055.473.055.429,0,.66-.154.891-.726l.275-.682-2.134-5.544h1.045l1.617,4.4l1.595-4.4h1.034l-2.475,6.38Zm2.6636-1.848l.77-.561c.308.671,1.012,1.078,1.76,1.078.671,0,1.265-.286,1.265-.913s-.55-.715-1.496-.913c-.946-.209-1.936-.418-1.936-1.595c0-1.023.891-1.738,2.112-1.738c1.034,0,1.881.506,2.222,1.188l-.704.561c-.297-.572-.836-.935-1.562-.935-.66,0-1.1.33-1.1.847c0,.539.506.638,1.309.814.99.231,2.123.429,2.123,1.683c0,1.1-1.001,1.826-2.233,1.826-1.045,0-2.09-.451-2.53-1.342Zm5.9436-5.533v-1.144h1.078v1.144h-1.078Zm1.034,1.001v5.753h-.99v-5.753h.99Zm1.0146,4.532l.77-.561c.308.671,1.012,1.078,1.76,1.078.671,0,1.265-.286,1.265-.913s-.55-.715-1.496-.913c-.946-.209-1.936-.418-1.936-1.595c0-1.023.891-1.738,2.112-1.738c1.034,0,1.881.506,2.2223,1.188l-.7043.561c-.297-.572-.836-.935-1.562-.935-.66,0-1.1.33-1.1.847c0,.539.506.638,1.309.814.99.231,2.1233.429,2.1233,1.683c0,1.1-1.0013,1.826-2.2333,1.826-1.045,0-2.09-.451-2.53-1.342Z" fill="#6b7280"/></g></g><g id="eBpIsd5GR7A55_to" transform="translate(47.7035,30.222)"><path id="eBpIsd5GR7A55" d="M2.94,7.262v3.738h-2.058v-10.052001h4.116C7.308,0.947999,8.75,2.04,8.75,4.112c0,1.526-.826,2.548-2.24,2.954L9.016,11h-2.352L4.34,7.262h-1.4Zm0-1.722h1.946c1.204,0,1.82-.518,1.82-1.414c0-.91-.616-1.428-1.82-1.428h-1.946v2.842Zm10.1701,5.614c-2.17,0-3.65397-1.554-3.65397-3.836c0-2.17,1.49797-3.822,3.58397-3.822c2.184,0,3.36,1.624,3.36,3.682v.574h-5.068c.14,1.12.826,1.792,1.792,1.792.756,0,1.358-.364,1.582-1.078l1.652.588c-.532,1.344-1.778,2.1-3.248,2.1Zm-.084-6.09c-.784,0-1.386.462-1.624,1.358h3.052c-.014-.728-.476-1.358-1.428-1.358Zm3.8196,4.69l1.218-1.246c.504.686,1.4,1.12,2.226,1.12.658,0,1.232-.224,1.232-.756c0-.56-.546-.63-1.722-.854-1.19-.238-2.506-.546-2.506-2.128c0-1.414,1.246-2.394,3.01-2.394c1.302,0,2.464.532,3.038,1.274l-1.12,1.232c-.49-.63-1.204-.98-1.974-.98-.616,0-1.022.266-1.022.672c0,.476.49.56,1.4.742c1.288.266,2.814.56,2.814,2.226c0,1.54-1.428,2.492-3.192,2.492-1.33,0-2.73-.49-3.402-1.4Zm11.7597,1.4c-.924,0-1.624-.364-2.058-.91v3.248h-1.96v-9.856h1.96v.756c.434-.532,1.134-.896,2.058-.896c2.03,0,3.206,1.736,3.206,3.822c0,2.1-1.176,3.836-3.206,3.836Zm-2.1-4.032v.406c0,1.246.7,1.946,1.638,1.946c1.106,0,1.694-.882,1.694-2.156c0-1.26-.588-2.142-1.694-2.142-.938,0-1.638.686-1.638,1.946Zm13.2802.196c0,2.296-1.484,3.836-3.612,3.836s-3.612-1.54-3.612-3.836c0-2.282,1.484-3.822,3.612-3.822s3.612,1.54,3.612,3.822Zm-5.278,0c0,1.4.644,2.212,1.666,2.212s1.652-.812,1.652-2.212c0-1.386-.63-2.198-1.652-2.198s-1.666.812-1.666,2.198ZM40.98,11v-7.364h1.96v.756c.406-.476,1.078-.896,2.016-.896c1.54,0,2.478,1.05,2.478,2.646v4.858h-1.96v-4.298c0-.826-.336-1.414-1.176-1.414-.686,0-1.358.49-1.358,1.456v4.256h-1.96Zm7.2974-1.246l1.218-1.246c.504.686,1.4,1.12,2.226,1.12.658,0,1.232-.224,1.232-.756c0-.56-.546-.63-1.722-.854-1.19-.238-2.506-.546-2.506-2.128c0-1.414,1.246-2.394,3.01-2.394c1.302,0,2.464.532,3.038,1.274l-1.12,1.232c-.49-.63-1.204-.98-1.974-.98-.616,0-1.022.266-1.022.672c0,.476.49.56,1.4.742c1.288.266,2.814.56,2.814,2.226c0,1.54-1.428,2.492-3.192,2.492-1.33,0-2.73-.49-3.402-1.4Zm10.9616,1.4c-2.17,0-3.654-1.554-3.654-3.836c0-2.17,1.498-3.822,3.584-3.822c2.184,0,3.36,1.624,3.36,3.682v.574h-5.068c.14,1.12.826,1.792,1.792,1.792.756,0,1.358-.364,1.582-1.078l1.652.588c-.532,1.344-1.778,2.1-3.248,2.1Zm-.084-6.09c-.784,0-1.386.462-1.624,1.358h3.052c-.014-.728-.476-1.358-1.428-1.358Z" transform="translate(-31.7055,-7.219999)" opacity="0" fill="#1f2937"/></g><g id="eBpIsd5GR7A56_to" transform="translate(75.514005,62.109685)"><g id="eBpIsd5GR7A56" transform="translate(-59.510994,-8.106315)" opacity="0"><path d="M7.00033,13.8333c3.22177,0,5.83337-2.6116,5.83337-5.83334s-2.6116-5.83333-5.83337-5.83333-5.83334,2.61158-5.83334,5.83333s2.61159,5.83334,5.83334,5.83334Z" fill="#8b5cf6" stroke="#8b5cf6" stroke-width="1.16667" stroke-linecap="round" stroke-linejoin="round"/><path d="M5.25,8.00004L6.41667,9.16671L8.75,6.83337" fill="none" stroke="#fff" stroke-width="1.16667" stroke-linecap="round" stroke-linejoin="round"/><path d="M22.8729,4.102h5.159v.924h-4.114v2.431h3.487v.924h-3.487v2.695h4.114v.924h-5.159v-7.898ZM32.9129,12l-1.595-2.266L29.7339,12h-1.078l2.101-3.003-1.925-2.75h1.133l1.386,2.013l1.408-2.013h1.089l-1.925,2.75L34.0349,12h-1.122Zm4.0529.121c-1.595,0-2.695-1.221-2.695-2.992c0-1.716,1.089-2.992,2.651-2.992c1.606,0,2.453,1.221,2.453,2.816v.33h-4.158c.055,1.21.748,1.98,1.749,1.98.77,0,1.32-.418,1.496-1.1l.869.308c-.352,1.023-1.221,1.65-2.365,1.65Zm-.055-5.137c-.836,0-1.463.561-1.639,1.54h3.102c-.022-.814-.462-1.54-1.463-1.54Zm4.2904,2.145c0,1.309.704,2.123,1.727,2.123.792,0,1.265-.506,1.43-1.221l.88.407c-.275.957-1.111,1.683-2.31,1.683-1.606,0-2.717-1.221-2.717-2.992c0-1.782,1.111-2.992,2.717-2.992c1.199,0,2.013.693,2.288,1.65l-.858.429c-.165-.704-.638-1.221-1.43-1.221-1.023,0-1.727.814-1.727,2.134Zm9.6859-2.882v5.753h-.99v-.792c-.33.484-.891.913-1.705.913-1.232,0-1.925-.847-1.925-2.068v-3.806h.99v3.597c0,.814.352,1.364,1.199,1.364.715,0,1.441-.539,1.441-1.496v-3.465h.99Zm1.798,4.378v-3.531h-.891v-.847h.891v-1.683h.979v1.683h1.309v.847h-1.309v3.377c0,.605.297.715.803.715.231,0,.396-.011.627-.066v.847c-.253.055-.539.088-.869.088-.979,0-1.54-.33-1.54-1.43Zm3.5402-5.379v-1.144h1.078v1.144h-1.078Zm1.034,1.001v5.753h-.99v-5.753h.99ZM61.3649,12h-.979l-2.156-5.753h1.045l1.617,4.543l1.595-4.543h1.034L61.3649,12Zm5.2708.121c-1.595,0-2.695-1.221-2.695-2.992c0-1.716,1.089-2.992,2.651-2.992c1.606,0,2.453,1.221,2.453,2.816v.33h-4.158c.055,1.21.748,1.98,1.749,1.98.77,0,1.32-.418,1.496-1.1l.869.308c-.352,1.023-1.221,1.65-2.365,1.65Zm-.055-5.137c-.836,0-1.463.561-1.639,1.54h3.102c-.022-.814-.462-1.54-1.463-1.54Zm5.3788,3.795l.77-.561c.308.671,1.012,1.078,1.76,1.078.671,0,1.265-.286,1.265-.913s-.55-.715-1.496-.913c-.946-.209-1.936-.418-1.936-1.595c0-1.023.891-1.738,2.112-1.738c1.034,0,1.881.506,2.222,1.188l-.704.561c-.297-.572-.836-.935-1.562-.935-.66,0-1.1.33-1.1.847c0,.539.506.638,1.309.814.99.231,2.123.429,2.123,1.683c0,1.1-1.001,1.826-2.233,1.826-1.045,0-2.09-.451-2.53-1.342ZM82.5121,6.247v5.753h-.99v-.792c-.33.484-.891.913-1.705.913-1.232,0-1.925-.847-1.925-2.068v-3.806h.99v3.597c0,.814.352,1.364,1.199,1.364.715,0,1.441-.539,1.441-1.496v-3.465h.99Zm2.634,2.31v3.443h-.99v-5.753h.99v.781c.308-.473.858-.891,1.661-.891.77,0,1.309.385,1.595.979.319-.473.935-.979,1.837-.979c1.188,0,1.903.847,1.903,2.068v3.795h-.99v-3.531c0-.803-.33-1.408-1.144-1.408-.66,0-1.364.561-1.364,1.496v3.443h-.99v-3.531c0-.803-.33-1.408-1.144-1.408-.66,0-1.364.561-1.364,1.496Zm9.582,0v3.443h-.99v-5.753h.99v.781c.308-.473.858-.891,1.661-.891.77,0,1.309.385,1.595.979.319-.473.935-.979,1.837-.979c1.1879,0,1.9029.847,1.9029,2.068v3.795h-.99v-3.531c0-.803-.33-1.408-1.1439-1.408-.66,0-1.364.561-1.364,1.496v3.443h-.99v-3.531c0-.803-.33-1.408-1.144-1.408-.66,0-1.364.561-1.364,1.496Zm10.0329,3.542c-1.045,0-1.892-.616-1.892-1.65c0-1.144.891-1.617,2.178-1.881l1.397-.286v-.242c0-.66-.363-1.034-1.133-1.034-.726,0-1.155.341-1.331.979l-.935-.242c.275-.935,1.122-1.606,2.299-1.606c1.287,0,2.079.627,2.079,1.859v2.805c0,.374.231.495.616.407v.792c-.88.11-1.386-.099-1.507-.649-.352.451-.99.748-1.771.748Zm1.683-2.057v-.99l-1.122.242c-.88.176-1.474.418-1.474,1.111c0,.561.407.891,1.034.891.847,0,1.562-.517,1.562-1.254Zm5.647-3.817v1.001c-.165-.033-.297-.044-.484-.044-.836,0-1.507.66-1.507,1.672v3.146h-.99v-5.753h.99v.979c.253-.583.814-1.023,1.595-1.023.154,0,.297.011.396.022Zm3.289,6.402c-.33.869-.781,1.419-1.782,1.419-.242,0-.363-.011-.539-.044v-.858c.187.044.308.055.473.055.429,0,.66-.154.891-.726l.275-.682-2.134-5.544h1.045l1.617,4.4l1.595-4.4h1.034l-2.475,6.38Z" fill="#6b7280"/></g></g><g id="eBpIsd5GR7A60_to" transform="translate(58.505655,86.093185)"><g id="eBpIsd5GR7A60" transform="translate(-42.502644,-8.089815)" opacity="0"><path d="M7.00033,13.8333c3.22177,0,5.83337-2.6116,5.83337-5.83334s-2.6116-5.83333-5.83337-5.83333-5.83334,2.61158-5.83334,5.83333s2.61159,5.83334,5.83334,5.83334Z" fill="#8b5cf6" stroke="#8b5cf6" stroke-width="1.16667" stroke-linecap="round" stroke-linejoin="round"/><path d="M5.25,8.00004L6.41667,9.16671L8.75,6.83337" fill="none" stroke="#fff" stroke-width="1.16667" stroke-linecap="round" stroke-linejoin="round"/><path d="M24.3156,8.689v3.311h-1.056v-7.898h3.014c1.672,0,2.739.781,2.739,2.288c0,1.485-1.067,2.299-2.739,2.299h-1.958Zm0-.913h1.903c1.122,0,1.749-.495,1.749-1.386s-.627-1.375-1.749-1.375h-1.903v2.761ZM32.932,6.225v1.001c-.165-.033-.297-.044-.484-.044-.836,0-1.507.66-1.507,1.672v3.146h-.99v-5.753h.99v.979c.253-.583.814-1.023,1.595-1.023.154,0,.297.011.396.022Zm5.8039,2.904c0,1.782-1.1,2.992-2.673,2.992s-2.673-1.21-2.673-2.992s1.1-2.992,2.673-2.992s2.673,1.21,2.673,2.992Zm-4.345,0c0,1.309.66,2.145,1.672,2.145s1.672-.836,1.672-2.145c0-1.32-.66-2.156-1.672-2.156s-1.672.836-1.672,2.156Zm5.56-3.883v-1.144h1.078v1.144h-1.078Zm.044,7.051v-6.05h.99v6.226c0,1.023-.638,1.54-1.617,1.54-.231,0-.374-.011-.55-.033v-.858c.121.022.22.033.385.033.572,0,.792-.275.792-.858Zm4.9416-.176c-1.595,0-2.695-1.221-2.695-2.992c0-1.716,1.089-2.992,2.651-2.992c1.606,0,2.453,1.221,2.453,2.816v.33h-4.158c.055,1.21.748,1.98,1.749,1.98.77,0,1.32-.418,1.496-1.1l.869.308c-.352,1.023-1.221,1.65-2.365,1.65Zm-.055-5.137c-.836,0-1.463.561-1.639,1.54h3.102c-.022-.814-.462-1.54-1.463-1.54Zm4.2904,2.145c0,1.309.704,2.123,1.727,2.123.792,0,1.265-.506,1.43-1.221l.88.407c-.275.957-1.111,1.683-2.31,1.683-1.606,0-2.717-1.221-2.717-2.992c0-1.782,1.111-2.992,2.717-2.992c1.199,0,2.013.693,2.288,1.65l-.858.429c-.165-.704-.638-1.221-1.43-1.221-1.023,0-1.727.814-1.727,2.134Zm5.2749,1.496v-3.531h-.891v-.847h.891v-1.683h.979v1.683h1.309v.847h-1.309v3.377c0,.605.297.715.803.715.231,0,.396-.011.627-.066v.847c-.253.055-.539.088-.869.088-.979,0-1.54-.33-1.54-1.43Zm6.0586,0v-3.531h-.891v-.847h.891v-1.683h.979v1.683h1.309v.847h-1.309v3.377c0,.605.297.715.803.715.231,0,.396-.011.627-.066v.847c-.253.055-.539.088-.869.088-.979,0-1.54-.33-1.54-1.43Zm5.851,1.496c-1.595,0-2.695-1.221-2.695-2.992c0-1.716,1.089-2.992,2.651-2.992c1.606,0,2.453,1.221,2.453,2.816v.33h-4.158c.055,1.21.748,1.98,1.749,1.98.77,0,1.32-.418,1.496-1.1l.869.308c-.352,1.023-1.221,1.65-2.365,1.65Zm-.055-5.137c-.836,0-1.463.561-1.639,1.54h3.102c-.022-.814-.462-1.54-1.463-1.54Zm5.2019,5.115c-1.045,0-1.892-.616-1.892-1.65c0-1.144.891-1.617,2.178-1.881l1.397-.286v-.242c0-.66-.363-1.034-1.133-1.034-.726,0-1.155.341-1.331.979l-.935-.242c.275-.935,1.122-1.606,2.299-1.606c1.287,0,2.079.627,2.079,1.859v2.805c0,.374.231.495.616.407v.792c-.88.11-1.386-.099-1.507-.649-.352.451-.99.748-1.771.748Zm1.683-2.057v-.99l-1.122.242c-.88.176-1.474.418-1.474,1.111c0,.561.407.891,1.034.891.847,0,1.562-.517,1.562-1.254Zm3.656-1.485v3.443h-.99v-5.753h.99v.781c.308-.473.858-.891,1.661-.891.77,0,1.309.385,1.595.979.319-.473.935-.979,1.837-.979c1.188,0,1.903.847,1.903,2.068v3.795h-.99v-3.531c0-.803-.33-1.408-1.144-1.408-.66,0-1.364.561-1.364,1.496v3.443h-.99v-3.531c0-.803-.33-1.408-1.144-1.408-.66,0-1.364.561-1.364,1.496Z" fill="#6b7280"/></g></g><g id="eBpIsd5GR7A64_to" transform="translate(59.344206,110.093185)"><g id="eBpIsd5GR7A64" transform="translate(-43.341195,-8.089815)" opacity="0"><path d="M7.00033,13.8333c3.22177,0,5.83337-2.6116,5.83337-5.83334s-2.6116-5.83333-5.83337-5.83333-5.83334,2.61158-5.83334,5.83333s2.61159,5.83334,5.83334,5.83334Z" fill="#8b5cf6" stroke="#8b5cf6" stroke-width="1.16667" stroke-linecap="round" stroke-linejoin="round"/><path d="M5.25,8.00004L6.41667,9.16671L8.75,6.83337" fill="none" stroke="#fff" stroke-width="1.16667" stroke-linecap="round" stroke-linejoin="round"/><path d="M24.01,8.689v3.311h-1.056v-7.898h3.014c1.672,0,2.739.781,2.739,2.288c0,1.485-1.067,2.299-2.739,2.299h-1.958Zm0-.913h1.903c1.122,0,1.749-.495,1.749-1.386s-.627-1.375-1.749-1.375h-1.903v2.761Zm7.0119,4.323c-1.045,0-1.892-.616-1.892-1.65c0-1.144.891-1.617,2.178-1.881l1.397-.286v-.242c0-.66-.363-1.034-1.133-1.034-.726,0-1.155.341-1.331.979l-.935-.242c.275-.935,1.122-1.606,2.299-1.606c1.287,0,2.079.627,2.079,1.859v2.805c0,.374.231.495.616.407v.792c-.88.11-1.386-.099-1.507-.649-.352.451-.99.748-1.771.748Zm1.683-2.057v-.99l-1.122.242c-.88.176-1.474.418-1.474,1.111c0,.561.407.891,1.034.891.847,0,1.562-.517,1.562-1.254Zm2.028.737l.77-.561c.308.671,1.012,1.078,1.76,1.078.671,0,1.265-.286,1.265-.913s-.55-.715-1.496-.913c-.946-.209-1.936-.418-1.936-1.595c0-1.023.891-1.738,2.112-1.738c1.034,0,1.881.506,2.222,1.188l-.704.561c-.297-.572-.836-.935-1.562-.935-.66,0-1.1.33-1.1.847c0,.539.506.638,1.309.814.99.231,2.123.429,2.123,1.683c0,1.1-1.001,1.826-2.233,1.826-1.045,0-2.09-.451-2.53-1.342Zm6.1416-.154v-3.531h-.891v-.847h.891v-1.683h.979v1.683h1.309v.847h-1.309v3.377c0,.605.297.715.803.715.231,0,.396-.011.627-.066v.847c-.253.055-.539.088-.869.088-.979,0-1.54-.33-1.54-1.43Zm8.6766,1.496c-.803,0-1.441-.385-1.782-.957v2.816h-.99v-7.733h.99v.836c.341-.561.979-.946,1.782-.946c1.595,0,2.508,1.353,2.508,2.992c0,1.628-.913,2.992-2.508,2.992Zm-1.804-3.19v.407c0,1.32.814,1.914,1.628,1.914c1.078,0,1.683-.891,1.683-2.123c0-1.243-.605-2.123-1.683-2.123-.814,0-1.628.583-1.628,1.925Zm8.5443-2.706v1.001c-.165-.033-.297-.044-.484-.044-.836,0-1.507.66-1.507,1.672v3.146h-.99v-5.753h.99v.979c.253-.583.814-1.023,1.595-1.023.154,0,.297.011.396.022Zm5.8039,2.904c0,1.782-1.1,2.992-2.673,2.992s-2.673-1.21-2.673-2.992s1.1-2.992,2.673-2.992s2.673,1.21,2.673,2.992Zm-4.345,0c0,1.309.66,2.145,1.672,2.145s1.672-.836,1.672-2.145c0-1.32-.66-2.156-1.672-2.156s-1.672.836-1.672,2.156Zm5.56-3.883v-1.144h1.078v1.144h-1.078Zm.044,7.051v-6.05h.99v6.226c0,1.023-.638,1.54-1.617,1.54-.231,0-.374-.011-.55-.033v-.858c.121.022.22.033.385.033.572,0,.792-.275.792-.858Zm4.9416-.176c-1.595,0-2.695-1.221-2.695-2.992c0-1.716,1.089-2.992,2.651-2.992c1.606,0,2.453,1.221,2.453,2.816v.33h-4.158c.055,1.21.748,1.98,1.749,1.98.77,0,1.32-.418,1.496-1.1l.869.308c-.352,1.023-1.221,1.65-2.365,1.65Zm-.055-5.137c-.836,0-1.463.561-1.639,1.54h3.102c-.022-.814-.462-1.54-1.463-1.54Zm4.2904,2.145c0,1.309.704,2.123,1.727,2.123.792,0,1.265-.506,1.43-1.221l.88.407c-.275.957-1.111,1.683-2.31,1.683-1.606,0-2.717-1.221-2.717-2.992c0-1.782,1.111-2.992,2.717-2.992c1.199,0,2.013.693,2.288,1.65l-.858.429c-.165-.704-.638-1.221-1.43-1.221-1.023,0-1.727.814-1.727,2.134Zm5.2748,1.496v-3.531h-.891v-.847h.891v-1.683h.979v1.683h1.309v.847h-1.309v3.377c0,.605.297.715.803.715.231,0,.396-.011.627-.066v.847c-.253.055-.539.088-.869.088-.979,0-1.54-.33-1.54-1.43Zm2.9463.154l.77-.561c.308.671,1.012,1.078,1.76,1.078.671,0,1.265-.286,1.265-.913s-.55-.715-1.496-.913c-.946-.209-1.936-.418-1.936-1.595c0-1.023.891-1.738,2.112-1.738c1.034,0,1.881.506,2.222,1.188l-.704.561c-.297-.572-.836-.935-1.562-.935-.66,0-1.1.33-1.1.847c0,.539.506.638,1.309.814.99.231,2.123.429,2.123,1.683c0,1.1-1.001,1.826-2.233,1.826-1.045,0-2.09-.451-2.53-1.342Z" fill="#6b7280"/></g></g><g id="eBpIsd5GR7A68_to" transform="translate(44.559307,134.137185)"><g id="eBpIsd5GR7A68" transform="translate(-28.556296,-8.133815)" opacity="0"><path d="M7.00033,13.8333c3.22177,0,5.83337-2.6116,5.83337-5.83334s-2.6116-5.83333-5.83337-5.83333-5.83334,2.61158-5.83334,5.83333s2.61159,5.83334,5.83334,5.83334Z" fill="#8b5cf6" stroke="#8b5cf6" stroke-width="1.16667" stroke-linecap="round" stroke-linejoin="round"/><path d="M5.25,8.00004L6.41667,9.16671L8.75,6.83337" fill="none" stroke="#fff" stroke-width="1.16667" stroke-linecap="round" stroke-linejoin="round"/><path d="M24.1569,8.689v3.311h-1.056v-7.898h3.014c1.672,0,2.739.781,2.739,2.288c0,1.485-1.067,2.299-2.739,2.299h-1.958Zm0-.913h1.903c1.122,0,1.749-.495,1.749-1.386s-.627-1.375-1.749-1.375h-1.903v2.761Zm8.6164-1.551v1.001c-.165-.033-.297-.044-.484-.044-.836,0-1.507.66-1.507,1.672v3.146h-.99v-5.753h.99v.979c.253-.583.814-1.023,1.595-1.023.154,0,.297.011.396.022Zm1.0463-.979v-1.144h1.078v1.144h-1.078Zm1.034,1.001v5.753h-.99v-5.753h.99Zm2.2466,2.882c0,1.309.704,2.123,1.727,2.123.792,0,1.265-.506,1.43-1.221l.88.407c-.275.957-1.111,1.683-2.31,1.683-1.606,0-2.717-1.221-2.717-2.992c0-1.782,1.111-2.992,2.717-2.992c1.199,0,2.013.693,2.288,1.65l-.858.429c-.165-.704-.638-1.221-1.43-1.221-1.023,0-1.727.814-1.727,2.134ZM42.177,5.246v-1.144h1.078v1.144h-1.078Zm1.034,1.001v5.753h-.99v-5.753h.99ZM44.8636,12v-5.753h.99v.781c.33-.473.902-.891,1.716-.891c1.221,0,1.914.847,1.914,2.068v3.795h-.99v-3.531c0-.803-.341-1.408-1.199-1.408-.715,0-1.441.55-1.441,1.507v3.432h-.99Zm11.082-.517c0,1.683-1.111,2.618-2.673,2.618-1.265,0-2.189-.583-2.508-1.639l.924-.352c.187.737.781,1.166,1.584,1.166c1.012,0,1.683-.517,1.683-1.716v-.649c-.308.561-.957.957-1.76.957-1.573,0-2.497-1.298-2.497-2.871c0-1.562.924-2.86,2.497-2.86.792,0,1.452.396,1.76.957v-.847h.99v5.236Zm-.979-2.574c0-1.287-.77-1.903-1.595-1.903-1.045,0-1.683.781-1.683,1.991s.638,2.002,1.683,2.002c.825,0,1.595-.616,1.595-1.881v-.209Z" fill="#6b7280"/></g></g><g id="eBpIsd5GR7A72_to" transform="translate(56.760954,158.076685)"><g id="eBpIsd5GR7A72" transform="translate(-40.757943,-8.073315)" opacity="0"><path d="M7.00033,13.8333c3.22177,0,5.83337-2.6116,5.83337-5.83334s-2.6116-5.83333-5.83337-5.83333-5.83334,2.61158-5.83334,5.83333s2.61159,5.83334,5.83334,5.83334Z" fill="#8b5cf6" stroke="#8b5cf6" stroke-width="1.16667" stroke-linecap="round" stroke-linejoin="round"/><path d="M5.25,8.00004L6.41667,9.16671L8.75,6.83337" fill="none" stroke="#fff" stroke-width="1.16667" stroke-linecap="round" stroke-linejoin="round"/><path d="M23.7067,8.051c0,1.87,1.034,3.135,2.497,3.135c1.023,0,1.76-.594,2.046-1.595l1.001.33c-.462,1.364-1.54,2.2-3.047,2.2-2.046,0-3.553-1.661-3.553-4.07s1.507-4.07,3.553-4.07c1.507,0,2.585.836,3.047,2.2l-1.001.33c-.286-1.001-1.023-1.595-2.046-1.595-1.463,0-2.497,1.265-2.497,3.135ZM35.2696,9.129c0,1.782-1.1,2.992-2.673,2.992s-2.673-1.21-2.673-2.992s1.1-2.992,2.673-2.992s2.673,1.21,2.673,2.992Zm-4.345,0c0,1.309.66,2.145,1.672,2.145s1.672-.836,1.672-2.145c0-1.32-.66-2.156-1.672-2.156s-1.672.836-1.672,2.156Zm6.594-.572v3.443h-.99v-5.753h.99v.781c.308-.473.858-.891,1.661-.891.77,0,1.309.385,1.595.979.319-.473.935-.979,1.837-.979c1.188,0,1.903.847,1.903,2.068v3.795h-.99v-3.531c0-.803-.33-1.408-1.144-1.408-.66,0-1.364.561-1.364,1.496v3.443h-.99v-3.531c0-.803-.33-1.408-1.144-1.408-.66,0-1.364.561-1.364,1.496Zm11.364,3.564c-.803,0-1.441-.385-1.782-.957v2.816h-.99v-7.733h.99v.836c.341-.561.979-.946,1.782-.946c1.595,0,2.508,1.353,2.508,2.992c0,1.628-.913,2.992-2.508,2.992Zm-1.804-3.19v.407c0,1.32.814,1.914,1.628,1.914c1.078,0,1.683-.891,1.683-2.123c0-1.243-.605-2.123-1.683-2.123-.814,0-1.628.583-1.628,1.925Zm6.5533-4.829v7.898h-.99v-7.898h.99Zm1.6086,1.144v-1.144h1.078v1.144h-1.078Zm1.034,1.001v5.753h-.99v-5.753h.99Zm3.0936,5.852c-1.045,0-1.892-.616-1.892-1.65c0-1.144.891-1.617,2.178-1.881l1.397-.286v-.242c0-.66-.363-1.034-1.133-1.034-.726,0-1.155.341-1.331.979l-.935-.242c.275-.935,1.122-1.606,2.299-1.606c1.287,0,2.079.627,2.079,1.859v2.805c0,.374.231.495.616.407v.792c-.88.11-1.386-.099-1.507-.649-.352.451-.99.748-1.771.748Zm1.683-2.057v-.99l-1.122.242c-.88.176-1.474.418-1.474,1.111c0,.561.407.891,1.034.891.847,0,1.562-.517,1.562-1.254ZM63.7171,12v-5.753h.99v.781c.33-.473.902-.891,1.716-.891c1.221,0,1.914.847,1.914,2.068v3.795h-.99v-3.531c0-.803-.341-1.408-1.199-1.408-.715,0-1.441.55-1.441,1.507v3.432h-.99Zm6.803-2.871c0,1.309.704,2.123,1.727,2.123.792,0,1.265-.506,1.43-1.221l.88.407c-.275.957-1.111,1.683-2.31,1.683-1.606,0-2.717-1.221-2.717-2.992c0-1.782,1.111-2.992,2.717-2.992c1.199,0,2.013.693,2.288,1.65l-.858.429c-.165-.704-.638-1.221-1.43-1.221-1.023,0-1.727.814-1.727,2.134Zm7.4198,2.992c-1.595,0-2.695-1.221-2.695-2.992c0-1.716,1.089-2.992,2.651-2.992c1.606,0,2.453,1.221,2.453,2.816v.33h-4.158c.055,1.21.748,1.98,1.749,1.98.77,0,1.32-.418,1.496-1.1l.869.308c-.352,1.023-1.221,1.65-2.365,1.65Zm-.055-5.137c-.836,0-1.463.561-1.639,1.54h3.102c-.022-.814-.462-1.54-1.463-1.54Z" fill="#6b7280"/></g></g><g id="eBpIsd5GR7A76_ts" transform="translate(134,26) scale(0.8,0.8)"><g id="eBpIsd5GR7A76" transform="translate(-10,-10)" opacity="0"><rect width="20" height="20" rx="4" ry="4" fill="#f3f4f6"/><path d="M14.082,5.83337v2.5h-2.5" fill="none" stroke="#6b7280" stroke-width="0.833333" stroke-linecap="round" stroke-linejoin="round"/><path d="M6.58203,10c.00066-.72362.21067-1.43159.60469-2.03852s.95523-1.08691,1.61594-1.38202s1.39264-.39277,2.10764-.28118s1.3824.42764,1.9217.91006l1.25,1.125" fill="none" stroke="#6b7280" stroke-width="0.833333" stroke-linecap="round" stroke-linejoin="round"/><path d="M6.58203,14.1666v-2.5h2.5" fill="none" stroke="#6b7280" stroke-width="0.833333" stroke-linecap="round" stroke-linejoin="round"/><path d="M14.082,10c-.0006.7236-.2106,1.4316-.6047,2.0385s-.9552,1.0869-1.6159,1.382-1.3927.3928-2.10764.2812-1.38238-.4276-1.92173-.91l-1.25-1.125" fill="none" stroke="#6b7280" stroke-width="0.833333" stroke-linecap="round" stroke-linejoin="round"/></g></g></svg>
